<svg width="19" height="18" viewBox="0 0 19 18" fill="none" xmlns="http://www.w3.org/2000/svg">
<path d="M16.25 5.25V12.75C16.25 15 15.125 16.5 12.5 16.5H6.5C3.875 16.5 2.75 15 2.75 12.75V5.25C2.75 3 3.875 1.5 6.5 1.5H12.5C15.125 1.5 16.25 3 16.25 5.25Z" stroke="#F58634" stroke-miterlimit="10" stroke-linecap="round" stroke-linejoin="round"/>
<path d="M12.125 1.5V7.39499C12.125 7.72499 11.735 7.88999 11.495 7.67249L9.75502 6.06752C9.61252 5.93252 9.38748 5.93252 9.24498 6.06752L7.50502 7.67249C7.26502 7.88999 6.875 7.72499 6.875 7.39499V1.5H12.125Z" stroke="#F58634" stroke-miterlimit="10" stroke-linecap="round" stroke-linejoin="round"/>
<path d="M10.4375 10.5H13.625" stroke="#F58634" stroke-miterlimit="10" stroke-linecap="round" stroke-linejoin="round"/>
<path d="M7.25 13.5H13.625" stroke="#F58634" stroke-miterlimit="10" stroke-linecap="round" stroke-linejoin="round"/>
</svg>
