<svg width="19" height="18" viewBox="0 0 19 18" fill="none" xmlns="http://www.w3.org/2000/svg">
<path d="M17 8.175V3.075C17 1.95 16.52 1.5 15.3275 1.5H12.2975C11.105 1.5 10.625 1.95 10.625 3.075V8.175C10.625 9.3 11.105 9.75 12.2975 9.75H15.3275C16.52 9.75 17 9.3 17 8.175Z" stroke="#F58634" stroke-linecap="round" stroke-linejoin="round"/>
<path d="M17 14.925V13.575C17 12.45 16.52 12 15.3275 12H12.2975C11.105 12 10.625 12.45 10.625 13.575V14.925C10.625 16.05 11.105 16.5 12.2975 16.5H15.3275C16.52 16.5 17 16.05 17 14.925Z" stroke="#F58634" stroke-linecap="round" stroke-linejoin="round"/>
<path d="M8.375 9.825V14.925C8.375 16.05 7.895 16.5 6.7025 16.5H3.6725C2.48 16.5 2 16.05 2 14.925V9.825C2 8.7 2.48 8.25 3.6725 8.25H6.7025C7.895 8.25 8.375 8.7 8.375 9.825Z" stroke="#F58634" stroke-linecap="round" stroke-linejoin="round"/>
<path d="M8.375 3.075V4.425C8.375 5.55 7.895 6 6.7025 6H3.6725C2.48 6 2 5.55 2 4.425V3.075C2 1.95 2.48 1.5 3.6725 1.5H6.7025C7.895 1.5 8.375 1.95 8.375 3.075Z" stroke="#F58634" stroke-linecap="round" stroke-linejoin="round"/>
</svg>
