<svg width="19" height="18" viewBox="0 0 19 18" fill="none" xmlns="http://www.w3.org/2000/svg">
<path d="M9.5 11.8125C7.9475 11.8125 6.6875 10.5525 6.6875 9C6.6875 7.4475 7.9475 6.1875 9.5 6.1875C11.0525 6.1875 12.3125 7.4475 12.3125 9C12.3125 10.5525 11.0525 11.8125 9.5 11.8125ZM9.5 7.3125C8.57 7.3125 7.8125 8.07 7.8125 9C7.8125 9.93 8.57 10.6875 9.5 10.6875C10.43 10.6875 11.1875 9.93 11.1875 9C11.1875 8.07 10.43 7.3125 9.5 7.3125Z" fill="#AEB0B3"/>
<path d="M11.9075 16.6427C11.75 16.6427 11.5925 16.6202 11.435 16.5827C10.97 16.4552 10.58 16.1627 10.3325 15.7502L10.2425 15.6002C9.8 14.8352 9.1925 14.8352 8.75 15.6002L8.6675 15.7427C8.42 16.1627 8.03 16.4627 7.565 16.5827C7.0925 16.7102 6.605 16.6427 6.1925 16.3952L4.9025 15.6527C4.445 15.3902 4.115 14.9627 3.9725 14.4452C3.8375 13.9277 3.905 13.3952 4.1675 12.9377C4.385 12.5552 4.445 12.2102 4.3175 11.9927C4.19 11.7752 3.8675 11.6477 3.425 11.6477C2.33 11.6477 1.4375 10.7552 1.4375 9.66021V8.34021C1.4375 7.24521 2.33 6.35272 3.425 6.35272C3.8675 6.35272 4.19 6.22521 4.3175 6.00772C4.445 5.79022 4.3925 5.44521 4.1675 5.06272C3.905 4.60521 3.8375 4.06521 3.9725 3.55521C4.1075 3.03771 4.4375 2.61021 4.9025 2.34771L6.2 1.60521C7.0475 1.10271 8.165 1.39521 8.675 2.25771L8.765 2.40771C9.2075 3.17271 9.815 3.17271 10.2575 2.40771L10.34 2.26521C10.85 1.39521 11.9675 1.10271 12.8225 1.61271L14.1125 2.35521C14.57 2.61771 14.9 3.04521 15.0425 3.56271C15.1775 4.08021 15.11 4.61272 14.8475 5.07022C14.63 5.45271 14.57 5.79772 14.6975 6.01522C14.825 6.23272 15.1475 6.36021 15.59 6.36021C16.685 6.36021 17.5775 7.25271 17.5775 8.34771V9.66772C17.5775 10.7627 16.685 11.6552 15.59 11.6552C15.1475 11.6552 14.825 11.7827 14.6975 12.0002C14.57 12.2177 14.6225 12.5627 14.8475 12.9452C15.11 13.4027 15.185 13.9427 15.0425 14.4527C14.9075 14.9702 14.5775 15.3977 14.1125 15.6602L12.815 16.4027C12.53 16.5602 12.2225 16.6427 11.9075 16.6427ZM9.5 13.8677C10.1675 13.8677 10.79 14.2877 11.2175 15.0302L11.3 15.1727C11.39 15.3302 11.54 15.4427 11.72 15.4877C11.9 15.5327 12.08 15.5102 12.23 15.4202L13.5275 14.6702C13.7225 14.5577 13.8725 14.3702 13.9325 14.1452C13.9925 13.9202 13.9625 13.6877 13.85 13.4927C13.4225 12.7577 13.37 12.0002 13.7 11.4227C14.03 10.8452 14.7125 10.5152 15.5675 10.5152C16.0475 10.5152 16.43 10.1327 16.43 9.65271V8.33271C16.43 7.86021 16.0475 7.47021 15.5675 7.47021C14.7125 7.47021 14.03 7.14021 13.7 6.56272C13.37 5.98522 13.4225 5.22771 13.85 4.49271C13.9625 4.29771 13.9925 4.06521 13.9325 3.84021C13.8725 3.61521 13.73 3.43521 13.535 3.31521L12.2375 2.57271C11.915 2.37771 11.4875 2.49021 11.2925 2.82021L11.21 2.96271C10.7825 3.70521 10.16 4.12521 9.4925 4.12521C8.825 4.12521 8.2025 3.70521 7.775 2.96271L7.6925 2.81271C7.505 2.49771 7.085 2.38521 6.7625 2.57271L5.465 3.32271C5.27 3.43521 5.12 3.62271 5.06 3.84771C5 4.07271 5.03 4.30521 5.1425 4.50022C5.57 5.23521 5.6225 5.99271 5.2925 6.57022C4.9625 7.14772 4.28 7.47771 3.425 7.47771C2.945 7.47771 2.5625 7.86021 2.5625 8.34021V9.66021C2.5625 10.1327 2.945 10.5227 3.425 10.5227C4.28 10.5227 4.9625 10.8527 5.2925 11.4302C5.6225 12.0077 5.57 12.7652 5.1425 13.5002C5.03 13.6952 5 13.9277 5.06 14.1527C5.12 14.3777 5.2625 14.5577 5.4575 14.6777L6.755 15.4202C6.9125 15.5177 7.1 15.5402 7.2725 15.4952C7.4525 15.4502 7.6025 15.3302 7.7 15.1727L7.7825 15.0302C8.21 14.2952 8.8325 13.8677 9.5 13.8677Z" fill="#AEB0B3"/>
</svg>
