<svg width="284" height="234" viewBox="0 0 284 234" fill="none" xmlns="http://www.w3.org/2000/svg">
<g filter="url(#filter0_d_749_19833)">
<rect width="276" height="226" fill="white"/>
<path d="M31.317 37H29.067L33.1636 25.3636H35.7659L39.8682 37H37.6182L34.5102 27.75H34.4193L31.317 37ZM31.3909 32.4375H37.5273V34.1307H31.3909V32.4375ZM45.6511 37.1705C44.7799 37.1705 44.0318 36.9792 43.4068 36.5966C42.7856 36.214 42.3064 35.6856 41.9693 35.0114C41.636 34.3333 41.4693 33.553 41.4693 32.6705C41.4693 31.7841 41.6398 31.0019 41.9807 30.3239C42.3216 29.642 42.8027 29.1117 43.4239 28.733C44.0489 28.3504 44.7875 28.1591 45.6398 28.1591C46.3481 28.1591 46.975 28.2898 47.5205 28.5511C48.0697 28.8087 48.5072 29.1742 48.833 29.6477C49.1587 30.1174 49.3443 30.6667 49.3898 31.2955H47.4239C47.3443 30.875 47.1549 30.5246 46.8557 30.2443C46.5602 29.9602 46.1644 29.8182 45.6682 29.8182C45.2477 29.8182 44.8784 29.9318 44.5602 30.1591C44.242 30.3826 43.9939 30.7045 43.8159 31.125C43.6417 31.5455 43.5545 32.0492 43.5545 32.6364C43.5545 33.2311 43.6417 33.7424 43.8159 34.1705C43.9902 34.5947 44.2345 34.9223 44.5489 35.1534C44.867 35.3807 45.2402 35.4943 45.6682 35.4943C45.9712 35.4943 46.242 35.4375 46.4807 35.3239C46.7231 35.2064 46.9258 35.0379 47.0886 34.8182C47.2515 34.5985 47.3633 34.3314 47.4239 34.017H49.3898C49.3405 34.6345 49.1587 35.1818 48.8443 35.6591C48.5299 36.1326 48.1019 36.5038 47.5602 36.7727C47.0186 37.0379 46.3822 37.1705 45.6511 37.1705ZM54.3901 37.1761C53.837 37.1761 53.3389 37.0777 52.8957 36.8807C52.4563 36.6799 52.1079 36.3845 51.8503 35.9943C51.5965 35.6042 51.4696 35.1231 51.4696 34.5511C51.4696 34.0587 51.5605 33.6515 51.7423 33.3295C51.9241 33.0076 52.1723 32.75 52.4866 32.5568C52.801 32.3636 53.1552 32.2178 53.5491 32.1193C53.9469 32.017 54.3579 31.9432 54.7821 31.8977C55.2935 31.8447 55.7082 31.7973 56.0264 31.7557C56.3446 31.7102 56.5757 31.642 56.7196 31.5511C56.8673 31.4564 56.9412 31.3106 56.9412 31.1136V31.0795C56.9412 30.6515 56.8143 30.3201 56.5605 30.0852C56.3067 29.8504 55.9412 29.733 55.4639 29.733C54.9601 29.733 54.5605 29.8428 54.2651 30.0625C53.9734 30.2822 53.7764 30.5417 53.6741 30.8409L51.7537 30.5682C51.9052 30.0379 52.1552 29.5947 52.5037 29.2386C52.8522 28.8788 53.2783 28.6098 53.7821 28.4318C54.2859 28.25 54.8427 28.1591 55.4526 28.1591C55.873 28.1591 56.2916 28.2083 56.7082 28.3068C57.1249 28.4053 57.5056 28.5682 57.8503 28.7955C58.195 29.0189 58.4715 29.3239 58.6798 29.7102C58.892 30.0966 58.998 30.5795 58.998 31.1591V37H57.0207V35.8011H56.9526C56.8276 36.0436 56.6514 36.2708 56.4241 36.483C56.2007 36.6913 55.9185 36.8598 55.5776 36.9886C55.2404 37.1136 54.8446 37.1761 54.3901 37.1761ZM54.9241 35.6648C55.337 35.6648 55.695 35.5833 55.998 35.4205C56.301 35.2538 56.534 35.0341 56.6969 34.7614C56.8635 34.4886 56.9469 34.1913 56.9469 33.8693V32.8409C56.8825 32.8939 56.7726 32.9432 56.6173 32.9886C56.4658 33.0341 56.2954 33.0739 56.106 33.108C55.9166 33.142 55.7291 33.1723 55.5435 33.1989C55.3579 33.2254 55.1969 33.2481 55.0605 33.267C54.7537 33.3087 54.4791 33.3769 54.2366 33.4716C53.9942 33.5663 53.8029 33.6989 53.6628 33.8693C53.5226 34.036 53.4526 34.2519 53.4526 34.517C53.4526 34.8958 53.5908 35.1818 53.8673 35.375C54.1438 35.5682 54.4961 35.6648 54.9241 35.6648ZM65.1048 37.1534C64.4192 37.1534 63.8056 36.9773 63.2639 36.625C62.7223 36.2727 62.2942 35.7614 61.9798 35.0909C61.6654 34.4205 61.5082 33.6061 61.5082 32.6477C61.5082 31.678 61.6673 30.8598 61.9855 30.1932C62.3075 29.5227 62.7412 29.017 63.2866 28.6761C63.8321 28.3314 64.4401 28.1591 65.1105 28.1591C65.6219 28.1591 66.0423 28.2462 66.3719 28.4205C66.7014 28.5909 66.9628 28.7973 67.156 29.0398C67.3491 29.2784 67.4988 29.5038 67.6048 29.7159H67.6901V25.3636H69.7526V37H67.7298V35.625H67.6048C67.4988 35.8371 67.3454 36.0625 67.1446 36.3011C66.9438 36.536 66.6787 36.7367 66.3491 36.9034C66.0196 37.0701 65.6048 37.1534 65.1048 37.1534ZM65.6787 35.4659C66.1143 35.4659 66.4855 35.3485 66.7923 35.1136C67.0991 34.875 67.3321 34.5436 67.4912 34.1193C67.6503 33.6951 67.7298 33.2008 67.7298 32.6364C67.7298 32.072 67.6503 31.5814 67.4912 31.1648C67.3359 30.7481 67.1048 30.4242 66.798 30.1932C66.495 29.9621 66.1219 29.8466 65.6787 29.8466C65.2204 29.8466 64.8378 29.9659 64.531 30.2045C64.2241 30.4432 63.9931 30.7727 63.8378 31.1932C63.6825 31.6136 63.6048 32.0947 63.6048 32.6364C63.6048 33.1818 63.6825 33.6686 63.8378 34.0966C63.9969 34.5208 64.2298 34.8561 64.5366 35.1023C64.8473 35.3447 65.2279 35.4659 65.6787 35.4659ZM76.608 37.1705C75.733 37.1705 74.9773 36.9886 74.3409 36.625C73.7083 36.2576 73.2216 35.7386 72.8807 35.0682C72.5398 34.3939 72.3693 33.6004 72.3693 32.6875C72.3693 31.7898 72.5398 31.0019 72.8807 30.3239C73.2254 29.642 73.7064 29.1117 74.3239 28.733C74.9413 28.3504 75.6667 28.1591 76.5 28.1591C77.0379 28.1591 77.5455 28.2462 78.0227 28.4205C78.5038 28.5909 78.928 28.8561 79.2955 29.2159C79.6667 29.5758 79.9583 30.0341 80.1705 30.5909C80.3826 31.1439 80.4886 31.803 80.4886 32.5682V33.1989H73.3352V31.8125H78.517C78.5133 31.4186 78.428 31.0682 78.2614 30.7614C78.0947 30.4508 77.8617 30.2064 77.5625 30.0284C77.267 29.8504 76.9223 29.7614 76.5284 29.7614C76.108 29.7614 75.7386 29.8636 75.4205 30.0682C75.1023 30.2689 74.8542 30.5341 74.6761 30.8636C74.5019 31.1894 74.4129 31.5473 74.4091 31.9375V33.1477C74.4091 33.6553 74.5019 34.0909 74.6875 34.4545C74.8731 34.8144 75.1326 35.0909 75.4659 35.2841C75.7992 35.4735 76.1894 35.5682 76.6364 35.5682C76.9356 35.5682 77.2064 35.5265 77.4489 35.4432C77.6913 35.3561 77.9015 35.2292 78.0795 35.0625C78.2576 34.8958 78.392 34.6894 78.483 34.4432L80.4034 34.6591C80.2822 35.1667 80.0511 35.6098 79.7102 35.9886C79.3731 36.3636 78.9413 36.6553 78.4148 36.8636C77.8883 37.0682 77.286 37.1705 76.608 37.1705ZM83.0287 37V28.2727H84.9946V29.7557H85.0969C85.2787 29.2557 85.5798 28.8655 86.0003 28.5852C86.4207 28.3011 86.9226 28.1591 87.506 28.1591C88.0969 28.1591 88.595 28.303 89.0003 28.5909C89.4094 28.875 89.6973 29.2633 89.8639 29.7557H89.9548C90.148 29.2708 90.4738 28.8845 90.9321 28.5966C91.3942 28.3049 91.9416 28.1591 92.5741 28.1591C93.3772 28.1591 94.0325 28.4129 94.5401 28.9205C95.0476 29.428 95.3014 30.1686 95.3014 31.142V37H93.2389V31.4602C93.2389 30.9186 93.095 30.5227 92.8071 30.2727C92.5192 30.0189 92.1669 29.892 91.7503 29.892C91.2541 29.892 90.8658 30.0473 90.5855 30.358C90.309 30.6648 90.1707 31.0644 90.1707 31.5568V37H88.1537V31.375C88.1537 30.9242 88.0173 30.5644 87.7446 30.2955C87.4757 30.0265 87.1234 29.892 86.6878 29.892C86.3923 29.892 86.1234 29.9678 85.881 30.1193C85.6385 30.267 85.4454 30.4773 85.3014 30.75C85.1575 31.0189 85.0855 31.3333 85.0855 31.6932V37H83.0287ZM98.1881 37V28.2727H100.245V37H98.1881ZM99.2222 27.0341C98.8964 27.0341 98.6161 26.9261 98.3813 26.7102C98.1464 26.4905 98.029 26.2273 98.029 25.9205C98.029 25.6098 98.1464 25.3466 98.3813 25.1307C98.6161 24.911 98.8964 24.8011 99.2222 24.8011C99.5517 24.8011 99.832 24.911 100.063 25.1307C100.298 25.3466 100.415 25.6098 100.415 25.9205C100.415 26.2273 100.298 26.4905 100.063 26.7102C99.832 26.9261 99.5517 27.0341 99.2222 27.0341ZM106.967 37.1705C106.096 37.1705 105.347 36.9792 104.722 36.5966C104.101 36.214 103.622 35.6856 103.285 35.0114C102.952 34.3333 102.785 33.553 102.785 32.6705C102.785 31.7841 102.955 31.0019 103.296 30.3239C103.637 29.642 104.118 29.1117 104.739 28.733C105.364 28.3504 106.103 28.1591 106.955 28.1591C107.664 28.1591 108.291 28.2898 108.836 28.5511C109.385 28.8087 109.823 29.1742 110.149 29.6477C110.474 30.1174 110.66 30.6667 110.705 31.2955H108.739C108.66 30.875 108.471 30.5246 108.171 30.2443C107.876 29.9602 107.48 29.8182 106.984 29.8182C106.563 29.8182 106.194 29.9318 105.876 30.1591C105.558 30.3826 105.31 30.7045 105.132 31.125C104.957 31.5455 104.87 32.0492 104.87 32.6364C104.87 33.2311 104.957 33.7424 105.132 34.1705C105.306 34.5947 105.55 34.9223 105.864 35.1534C106.183 35.3807 106.556 35.4943 106.984 35.4943C107.287 35.4943 107.558 35.4375 107.796 35.3239C108.039 35.2064 108.241 35.0379 108.404 34.8182C108.567 34.5985 108.679 34.3314 108.739 34.017H110.705C110.656 34.6345 110.474 35.1818 110.16 35.6591C109.846 36.1326 109.418 36.5038 108.876 36.7727C108.334 37.0379 107.698 37.1705 106.967 37.1705ZM120.162 25.3636V37H118.054V25.3636H120.162ZM125.211 31.8864V37H123.154V28.2727H125.12V29.7557H125.222C125.423 29.267 125.743 28.8788 126.182 28.5909C126.625 28.303 127.173 28.1591 127.824 28.1591C128.426 28.1591 128.951 28.2879 129.398 28.5455C129.849 28.803 130.197 29.1761 130.443 29.6648C130.693 30.1534 130.817 30.7462 130.813 31.4432V37H128.756V31.7614C128.756 31.178 128.604 30.7216 128.301 30.392C128.002 30.0625 127.587 29.8977 127.057 29.8977C126.697 29.8977 126.377 29.9773 126.097 30.1364C125.82 30.2917 125.603 30.517 125.443 30.8125C125.288 31.108 125.211 31.4659 125.211 31.8864ZM138.124 28.2727V29.8636H132.965V28.2727H138.124ZM134.255 37V27.4489C134.255 26.8617 134.376 26.3731 134.618 25.983C134.865 25.5928 135.194 25.3011 135.607 25.108C136.02 24.9148 136.478 24.8182 136.982 24.8182C137.338 24.8182 137.654 24.8466 137.931 24.9034C138.207 24.9602 138.412 25.0114 138.545 25.0568L138.136 26.6477C138.048 26.6212 137.939 26.5947 137.806 26.5682C137.673 26.5379 137.526 26.5227 137.363 26.5227C136.98 26.5227 136.709 26.6155 136.55 26.8011C136.395 26.983 136.317 27.2443 136.317 27.5852V37H134.255ZM144.014 37.1705C143.161 37.1705 142.423 36.983 141.798 36.608C141.173 36.233 140.688 35.7083 140.343 35.0341C140.002 34.3598 139.832 33.572 139.832 32.6705C139.832 31.7689 140.002 30.9792 140.343 30.3011C140.688 29.6231 141.173 29.0966 141.798 28.7216C142.423 28.3466 143.161 28.1591 144.014 28.1591C144.866 28.1591 145.605 28.3466 146.23 28.7216C146.855 29.0966 147.337 29.6231 147.678 30.3011C148.023 30.9792 148.195 31.7689 148.195 32.6705C148.195 33.572 148.023 34.3598 147.678 35.0341C147.337 35.7083 146.855 36.233 146.23 36.608C145.605 36.983 144.866 37.1705 144.014 37.1705ZM144.025 35.5227C144.487 35.5227 144.873 35.3958 145.184 35.142C145.495 34.8845 145.726 34.5398 145.877 34.108C146.033 33.6761 146.11 33.1951 146.11 32.6648C146.11 32.1307 146.033 31.6477 145.877 31.2159C145.726 30.7803 145.495 30.4337 145.184 30.1761C144.873 29.9186 144.487 29.7898 144.025 29.7898C143.552 29.7898 143.158 29.9186 142.843 30.1761C142.533 30.4337 142.3 30.7803 142.144 31.2159C141.993 31.6477 141.917 32.1307 141.917 32.6648C141.917 33.1951 141.993 33.6761 142.144 34.108C142.3 34.5398 142.533 34.8845 142.843 35.142C143.158 35.3958 143.552 35.5227 144.025 35.5227ZM152.008 37.125C151.664 37.125 151.368 37.0038 151.122 36.7614C150.876 36.5189 150.754 36.2235 150.758 35.875C150.754 35.5341 150.876 35.2424 151.122 35C151.368 34.7576 151.664 34.6364 152.008 34.6364C152.342 34.6364 152.631 34.7576 152.878 35C153.128 35.2424 153.254 35.5341 153.258 35.875C153.254 36.1061 153.194 36.3163 153.076 36.5057C152.963 36.6951 152.811 36.8466 152.622 36.9602C152.436 37.0701 152.232 37.125 152.008 37.125Z" fill="#54565A"/>
<path d="M31.7002 77.4545C31.6491 77.0227 31.4417 76.6875 31.0781 76.4489C30.7145 76.2102 30.2684 76.0909 29.74 76.0909C29.3537 76.0909 29.0156 76.1534 28.7258 76.2784C28.4389 76.4034 28.2145 76.5753 28.0525 76.794C27.8934 77.0128 27.8139 77.2614 27.8139 77.5398C27.8139 77.7727 27.8693 77.973 27.9801 78.1406C28.0937 78.3054 28.2386 78.4432 28.4147 78.554C28.5909 78.6619 28.7755 78.7514 28.9687 78.8224C29.1619 78.8906 29.3395 78.946 29.5014 78.9886L30.3877 79.2273C30.615 79.2869 30.8679 79.3693 31.1463 79.4744C31.4275 79.5795 31.696 79.723 31.9517 79.9048C32.2102 80.0838 32.4233 80.3139 32.5909 80.5952C32.7585 80.8764 32.8423 81.2216 32.8423 81.6307C32.8423 82.1023 32.7187 82.5284 32.4716 82.9091C32.2272 83.2898 31.8693 83.5923 31.3977 83.8168C30.9289 84.0412 30.3593 84.1534 29.6889 84.1534C29.0639 84.1534 28.5227 84.0526 28.0653 83.8509C27.6108 83.6491 27.2528 83.3679 26.9914 83.0071C26.7329 82.6463 26.5866 82.2273 26.5525 81.75H27.6434C27.6718 82.0795 27.7826 82.3523 27.9758 82.5682C28.1718 82.7812 28.419 82.9403 28.7173 83.0455C29.0184 83.1477 29.3423 83.1989 29.6889 83.1989C30.0923 83.1989 30.4545 83.1335 30.7755 83.0028C31.0966 82.8693 31.3508 82.6847 31.5383 82.4489C31.7258 82.2102 31.8196 81.9318 31.8196 81.6136C31.8196 81.3239 31.7386 81.0881 31.5767 80.9062C31.4147 80.7244 31.2017 80.5767 30.9375 80.4631C30.6733 80.3494 30.3877 80.25 30.0809 80.1648L29.0071 79.858C28.3252 79.6619 27.7855 79.3821 27.3877 79.0185C26.99 78.6548 26.7912 78.179 26.7912 77.5909C26.7912 77.1023 26.9233 76.6761 27.1875 76.3125C27.4545 75.946 27.8125 75.6619 28.2613 75.4602C28.713 75.2557 29.2173 75.1534 29.7741 75.1534C30.3366 75.1534 30.8366 75.2543 31.2741 75.456C31.7116 75.6548 32.0582 75.9276 32.3139 76.2741C32.5724 76.6207 32.7088 77.0142 32.723 77.4545H31.7002ZM37.7878 84.1364C37.1571 84.1364 36.6131 83.9972 36.1557 83.7188C35.7012 83.4375 35.3503 83.0455 35.1032 82.5426C34.8588 82.0369 34.7367 81.4489 34.7367 80.7784C34.7367 80.108 34.8588 79.517 35.1032 79.0057C35.3503 78.4915 35.6941 78.0909 36.1344 77.804C36.5776 77.5142 37.0946 77.3693 37.6855 77.3693C38.0265 77.3693 38.3631 77.4261 38.6955 77.5398C39.0279 77.6534 39.3304 77.8381 39.6032 78.0938C39.8759 78.3466 40.0932 78.6818 40.2551 79.0994C40.4171 79.517 40.498 80.0312 40.498 80.642V81.0682H35.4526V80.1989H39.4753C39.4753 79.8295 39.4015 79.5 39.2537 79.2102C39.1088 78.9205 38.9015 78.6918 38.6316 78.5241C38.3645 78.3565 38.0492 78.2727 37.6855 78.2727C37.285 78.2727 36.9384 78.3722 36.6458 78.571C36.356 78.767 36.133 79.0227 35.9767 79.3381C35.8205 79.6534 35.7424 79.9915 35.7424 80.3523V80.9318C35.7424 81.4261 35.8276 81.8452 35.998 82.1889C36.1713 82.5298 36.4114 82.7898 36.7182 82.9688C37.025 83.1449 37.3816 83.233 37.7878 83.233C38.052 83.233 38.2907 83.196 38.5037 83.1222C38.7196 83.0455 38.9057 82.9318 39.062 82.7812C39.2182 82.6278 39.339 82.4375 39.4242 82.2102L40.3958 82.483C40.2935 82.8125 40.1216 83.1023 39.8801 83.3523C39.6387 83.5994 39.3404 83.7926 38.9853 83.9318C38.6301 84.0682 38.231 84.1364 37.7878 84.1364ZM42.6279 84V77.4545H43.5995V78.4773H43.6847C43.8211 78.1278 44.0412 77.8565 44.3452 77.6634C44.6492 77.4673 45.0142 77.3693 45.4404 77.3693C45.8722 77.3693 46.2316 77.4673 46.5185 77.6634C46.8083 77.8565 47.0341 78.1278 47.1961 78.4773H47.2642C47.4319 78.1392 47.6833 77.8707 48.0185 77.6719C48.3537 77.4702 48.7557 77.3693 49.2245 77.3693C49.8097 77.3693 50.2884 77.5526 50.6605 77.919C51.0327 78.2827 51.2188 78.8494 51.2188 79.6193V84H50.2131V79.6193C50.2131 79.1364 50.081 78.7912 49.8168 78.5838C49.5526 78.3764 49.2415 78.2727 48.8836 78.2727C48.4233 78.2727 48.0668 78.4119 47.814 78.6903C47.5611 78.9659 47.4347 79.3153 47.4347 79.7386V84H46.412V79.517C46.412 79.1449 46.2912 78.8452 46.0498 78.6179C45.8083 78.3878 45.4972 78.2727 45.1165 78.2727C44.8551 78.2727 44.6108 78.3423 44.3836 78.4815C44.1591 78.6207 43.9773 78.8139 43.8381 79.0611C43.7017 79.3054 43.6336 79.5881 43.6336 79.9091V84H42.6279ZM56.4019 84.1364C55.7712 84.1364 55.2272 83.9972 54.7698 83.7188C54.3152 83.4375 53.9644 83.0455 53.7172 82.5426C53.4729 82.0369 53.3507 81.4489 53.3507 80.7784C53.3507 80.108 53.4729 79.517 53.7172 79.0057C53.9644 78.4915 54.3081 78.0909 54.7485 77.804C55.1917 77.5142 55.7087 77.3693 56.2996 77.3693C56.6405 77.3693 56.9772 77.4261 57.3096 77.5398C57.6419 77.6534 57.9445 77.8381 58.2172 78.0938C58.4899 78.3466 58.7073 78.6818 58.8692 79.0994C59.0311 79.517 59.1121 80.0312 59.1121 80.642V81.0682H54.0667V80.1989H58.0894C58.0894 79.8295 58.0155 79.5 57.8678 79.2102C57.7229 78.9205 57.5155 78.6918 57.2456 78.5241C56.9786 78.3565 56.6632 78.2727 56.2996 78.2727C55.899 78.2727 55.5524 78.3722 55.2598 78.571C54.9701 78.767 54.7471 79.0227 54.5908 79.3381C54.4346 79.6534 54.3564 79.9915 54.3564 80.3523V80.9318C54.3564 81.4261 54.4417 81.8452 54.6121 82.1889C54.7854 82.5298 55.0255 82.7898 55.3323 82.9688C55.6391 83.1449 55.9956 83.233 56.4019 83.233C56.6661 83.233 56.9047 83.196 57.1178 83.1222C57.3337 83.0455 57.5198 82.9318 57.676 82.7812C57.8323 82.6278 57.953 82.4375 58.0382 82.2102L59.0098 82.483C58.9076 82.8125 58.7357 83.1023 58.4942 83.3523C58.2527 83.5994 57.9544 83.7926 57.5993 83.9318C57.2442 84.0682 56.8451 84.1364 56.4019 84.1364ZM65.8783 78.9205L64.9749 79.1761C64.9181 79.0256 64.8343 78.8793 64.7235 78.7372C64.6155 78.5923 64.4678 78.473 64.2803 78.3793C64.0928 78.2855 63.8527 78.2386 63.5601 78.2386C63.1596 78.2386 62.8257 78.331 62.5587 78.5156C62.2945 78.6974 62.1624 78.929 62.1624 79.2102C62.1624 79.4602 62.2533 79.6577 62.4351 79.8026C62.6169 79.9474 62.901 80.0682 63.2874 80.1648L64.259 80.4034C64.8442 80.5455 65.2803 80.7628 65.5672 81.0554C65.8542 81.3452 65.9976 81.7187 65.9976 82.1761C65.9976 82.5511 65.8897 82.8864 65.6738 83.1818C65.4607 83.4773 65.1624 83.7102 64.7789 83.8807C64.3954 84.0511 63.9493 84.1364 63.4408 84.1364C62.7732 84.1364 62.2206 83.9915 61.7831 83.7017C61.3456 83.4119 61.0686 82.9886 60.9522 82.4318L61.9067 82.1932C61.9976 82.5455 62.1695 82.8097 62.4223 82.9858C62.678 83.1619 63.0118 83.25 63.4238 83.25C63.8925 83.25 64.2647 83.1506 64.5402 82.9517C64.8186 82.75 64.9579 82.5085 64.9579 82.2273C64.9579 82 64.8783 81.8097 64.7192 81.6562C64.5601 81.5 64.3158 81.3835 63.9863 81.3068L62.8954 81.0511C62.2959 80.9091 61.8556 80.6889 61.5743 80.3906C61.2959 80.0895 61.1567 79.7131 61.1567 79.2614C61.1567 78.892 61.2604 78.5653 61.4678 78.2812C61.678 77.9972 61.9635 77.7741 62.3243 77.6122C62.688 77.4503 63.0999 77.3693 63.5601 77.3693C64.2079 77.3693 64.7164 77.5114 65.0857 77.7955C65.4579 78.0795 65.7221 78.4545 65.8783 78.9205ZM70.9581 77.4545V78.3068H67.566V77.4545H70.9581ZM68.5547 75.8864H69.5603V82.125C69.5603 82.4091 69.6015 82.6222 69.6839 82.7642C69.7691 82.9034 69.8771 82.9972 70.0078 83.0455C70.1413 83.0909 70.2819 83.1136 70.4297 83.1136C70.5404 83.1136 70.6314 83.108 70.7024 83.0966C70.7734 83.0824 70.8302 83.071 70.8728 83.0625L71.0774 83.9659C71.0092 83.9915 70.914 84.017 70.7919 84.0426C70.6697 84.071 70.5149 84.0852 70.3274 84.0852C70.0433 84.0852 69.7649 84.0241 69.4922 83.902C69.2223 83.7798 68.9978 83.5938 68.8189 83.3438C68.6427 83.0938 68.5547 82.7784 68.5547 82.3977V75.8864ZM75.7449 84.1364C75.1142 84.1364 74.5701 83.9972 74.1127 83.7188C73.6582 83.4375 73.3074 83.0455 73.0602 82.5426C72.8159 82.0369 72.6937 81.4489 72.6937 80.7784C72.6937 80.108 72.8159 79.517 73.0602 79.0057C73.3074 78.4915 73.6511 78.0909 74.0914 77.804C74.5346 77.5142 75.0517 77.3693 75.6426 77.3693C75.9835 77.3693 76.3201 77.4261 76.6525 77.5398C76.9849 77.6534 77.2875 77.8381 77.5602 78.0938C77.8329 78.3466 78.0502 78.6818 78.2122 79.0994C78.3741 79.517 78.4551 80.0312 78.4551 80.642V81.0682H73.4096V80.1989H77.4324C77.4324 79.8295 77.3585 79.5 77.2108 79.2102C77.0659 78.9205 76.8585 78.6918 76.5886 78.5241C76.3216 78.3565 76.0062 78.2727 75.6426 78.2727C75.242 78.2727 74.8954 78.3722 74.6028 78.571C74.313 78.767 74.09 79.0227 73.9338 79.3381C73.7775 79.6534 73.6994 79.9915 73.6994 80.3523V80.9318C73.6994 81.4261 73.7846 81.8452 73.9551 82.1889C74.1284 82.5298 74.3684 82.7898 74.6752 82.9688C74.9821 83.1449 75.3386 83.233 75.7449 83.233C76.0091 83.233 76.2477 83.196 76.4608 83.1222C76.6767 83.0455 76.8627 82.9318 77.019 82.7812C77.1752 82.6278 77.296 82.4375 77.3812 82.2102L78.3528 82.483C78.2505 82.8125 78.0787 83.1023 77.8372 83.3523C77.5957 83.5994 77.2974 83.7926 76.9423 83.9318C76.5872 84.0682 76.188 84.1364 75.7449 84.1364ZM80.5849 84V77.4545H81.5565V78.4432H81.6247C81.744 78.1193 81.9599 77.8565 82.2724 77.6548C82.5849 77.4531 82.9372 77.3523 83.3292 77.3523C83.4031 77.3523 83.4954 77.3537 83.6062 77.3565C83.717 77.3594 83.8008 77.3636 83.8576 77.3693V78.392C83.8235 78.3835 83.7454 78.3707 83.6233 78.3537C83.5039 78.3338 83.3775 78.3239 83.244 78.3239C82.9258 78.3239 82.6417 78.3906 82.3917 78.5241C82.1446 78.6548 81.9485 78.8366 81.8037 79.0696C81.6616 79.2997 81.5906 79.5625 81.5906 79.858V84H80.5849Z" fill="#A6A6A6"/>
<path d="M29.3694 107.119C28.8353 107.119 28.3552 107.017 27.929 106.812C27.5057 106.605 27.1677 106.321 26.9148 105.96C26.662 105.599 26.5271 105.188 26.51 104.724H27.7884C27.8197 105.099 27.9859 105.408 28.287 105.649C28.5881 105.891 28.9489 106.011 29.3694 106.011C29.7046 106.011 30.0015 105.935 30.26 105.781C30.5214 105.625 30.7259 105.411 30.8736 105.138C31.0242 104.865 31.0995 104.554 31.0995 104.205C31.0995 103.849 31.0228 103.533 30.8694 103.254C30.716 102.976 30.5043 102.757 30.2344 102.598C29.9674 102.439 29.6606 102.358 29.314 102.355C29.0498 102.355 28.7842 102.401 28.5171 102.491C28.2501 102.582 28.0342 102.702 27.8694 102.849L26.6634 102.67L27.1535 98.2727H31.9518V99.402H28.2486L27.9717 101.844H28.0228C28.1932 101.679 28.4191 101.541 28.7004 101.43C28.9844 101.32 29.2884 101.264 29.6123 101.264C30.1435 101.264 30.6165 101.391 31.0313 101.643C31.4489 101.896 31.7771 102.241 32.0157 102.679C32.2572 103.114 32.3765 103.614 32.3736 104.179C32.3765 104.744 32.2486 105.249 31.9901 105.692C31.7344 106.135 31.3793 106.484 30.9248 106.74C30.4731 106.993 29.9546 107.119 29.3694 107.119ZM37.6026 100.455V101.477H34.0273V100.455H37.6026ZM34.9861 98.8864H36.2602V105.078C36.2602 105.325 36.2972 105.511 36.371 105.636C36.4449 105.759 36.5401 105.842 36.6565 105.888C36.7758 105.93 36.9051 105.952 37.0443 105.952C37.1466 105.952 37.2361 105.945 37.3128 105.93C37.3895 105.916 37.4491 105.905 37.4918 105.896L37.7219 106.949C37.648 106.977 37.5429 107.006 37.4065 107.034C37.2702 107.065 37.0997 107.082 36.8952 107.085C36.5599 107.091 36.2474 107.031 35.9577 106.906C35.6679 106.781 35.4335 106.588 35.2545 106.327C35.0756 106.065 34.9861 105.737 34.9861 105.342V98.8864ZM41.0268 103.114V107H39.7526V98.2727H41.0097V101.52H41.0907C41.2441 101.168 41.4785 100.888 41.7938 100.68C42.1092 100.473 42.5211 100.369 43.0296 100.369C43.4785 100.369 43.8705 100.462 44.2057 100.646C44.5438 100.831 44.8052 101.107 44.9898 101.473C45.1773 101.837 45.2711 102.291 45.2711 102.837V107H43.9969V102.99C43.9969 102.51 43.8734 102.138 43.6262 101.874C43.379 101.607 43.0353 101.473 42.595 101.473C42.2938 101.473 42.0239 101.537 41.7853 101.665C41.5495 101.793 41.3634 101.98 41.2271 102.227C41.0935 102.472 41.0268 102.767 41.0268 103.114ZM48.1424 109.455C47.9521 109.455 47.7788 109.439 47.6225 109.408C47.4663 109.379 47.3498 109.348 47.2731 109.314L47.5799 108.27C47.8129 108.332 48.0202 108.359 48.2021 108.351C48.3839 108.342 48.5444 108.274 48.6836 108.146C48.8256 108.018 48.9506 107.81 49.0586 107.52L49.2163 107.085L46.8214 100.455H48.185L49.8427 105.534H49.9109L51.5685 100.455H52.9364L50.239 107.874C50.114 108.214 49.9549 108.503 49.7617 108.739C49.5685 108.977 49.3384 109.156 49.0714 109.276C48.8043 109.395 48.4947 109.455 48.1424 109.455ZM57.3322 107.132C56.6874 107.132 56.132 106.994 55.666 106.719C55.203 106.44 54.845 106.05 54.5922 105.547C54.3422 105.041 54.2172 104.449 54.2172 103.77C54.2172 103.099 54.3422 102.509 54.5922 101.997C54.845 101.486 55.1973 101.087 55.649 100.8C56.1035 100.513 56.6348 100.369 57.2428 100.369C57.6121 100.369 57.97 100.43 58.3166 100.553C58.6632 100.675 58.9743 100.866 59.2499 101.128C59.5254 101.389 59.7428 101.729 59.9018 102.146C60.0609 102.561 60.1405 103.065 60.1405 103.659V104.111H54.9374V103.156H58.8919C58.8919 102.821 58.8237 102.524 58.6874 102.266C58.551 102.004 58.3592 101.798 58.1121 101.648C57.8678 101.497 57.5808 101.422 57.2513 101.422C56.8933 101.422 56.5808 101.51 56.3138 101.686C56.0496 101.859 55.845 102.087 55.7001 102.368C55.5581 102.646 55.4871 102.949 55.4871 103.276V104.021C55.4871 104.459 55.5638 104.831 55.7172 105.138C55.8734 105.445 56.0908 105.679 56.3692 105.841C56.6476 106 56.9729 106.08 57.345 106.08C57.5865 106.08 57.8067 106.045 58.0055 105.977C58.2044 105.906 58.3763 105.801 58.5212 105.662C58.666 105.523 58.7768 105.351 58.8535 105.146L60.0595 105.364C59.9629 105.719 59.7896 106.03 59.5396 106.297C59.2925 106.561 58.9814 106.767 58.6064 106.915C58.2342 107.06 57.8095 107.132 57.3322 107.132ZM64.059 107.145C63.6442 107.145 63.2692 107.068 62.934 106.915C62.5988 106.759 62.3332 106.533 62.1371 106.237C61.944 105.942 61.8474 105.58 61.8474 105.151C61.8474 104.781 61.9184 104.477 62.0604 104.239C62.2025 104 62.3942 103.811 62.6357 103.672C62.8772 103.533 63.1471 103.428 63.4454 103.357C63.7437 103.286 64.0477 103.232 64.3573 103.195C64.7494 103.149 65.0675 103.112 65.3119 103.084C65.5562 103.053 65.7337 103.003 65.8445 102.935C65.9553 102.866 66.0107 102.756 66.0107 102.602V102.572C66.0107 102.2 65.9056 101.912 65.6954 101.707C65.488 101.503 65.1783 101.401 64.7664 101.401C64.3374 101.401 63.9994 101.496 63.7522 101.686C63.5079 101.874 63.3388 102.082 63.2451 102.312L62.0477 102.04C62.1897 101.642 62.3971 101.321 62.6698 101.077C62.9454 100.83 63.2621 100.651 63.6201 100.54C63.9781 100.426 64.3545 100.369 64.7494 100.369C65.0107 100.369 65.2877 100.401 65.5803 100.463C65.8758 100.523 66.1513 100.634 66.407 100.795C66.6656 100.957 66.8772 101.189 67.042 101.49C67.2067 101.788 67.2891 102.176 67.2891 102.653V107H66.0448V106.105H65.9937C65.9113 106.27 65.7877 106.432 65.6229 106.591C65.4582 106.75 65.2465 106.882 64.988 106.987C64.7295 107.092 64.4198 107.145 64.059 107.145ZM64.336 106.122C64.6883 106.122 64.9894 106.053 65.2394 105.913C65.4923 105.774 65.684 105.592 65.8147 105.368C65.9482 105.141 66.015 104.898 66.015 104.639V103.795C65.9695 103.841 65.8815 103.884 65.7508 103.923C65.6229 103.96 65.4766 103.993 65.3119 104.021C65.1471 104.047 64.9866 104.071 64.8303 104.094C64.6741 104.114 64.5434 104.131 64.4383 104.145C64.1911 104.176 63.9653 104.229 63.7607 104.303C63.559 104.376 63.3971 104.483 63.2749 104.622C63.1556 104.759 63.0959 104.94 63.0959 105.168C63.0959 105.483 63.2124 105.722 63.4454 105.884C63.6783 106.043 63.9752 106.122 64.336 106.122ZM69.5862 107V100.455H70.8178V101.494H70.8859C71.0053 101.142 71.2155 100.865 71.5166 100.663C71.8206 100.459 72.1643 100.357 72.5479 100.357C72.6274 100.357 72.7212 100.359 72.8291 100.365C72.9399 100.371 73.0266 100.378 73.0891 100.386V101.605C73.0379 101.591 72.947 101.575 72.8163 101.558C72.6856 101.538 72.555 101.528 72.4243 101.528C72.1231 101.528 71.8547 101.592 71.6189 101.72C71.3859 101.845 71.2013 102.02 71.0649 102.244C70.9285 102.466 70.8604 102.719 70.8604 103.003V107H69.5862ZM82.424 102.082V103.19H78.5547V102.082H82.424ZM88.4809 107V106.045L91.434 102.986C91.7494 102.653 92.0093 102.362 92.2138 102.112C92.4212 101.859 92.5761 101.619 92.6783 101.392C92.7806 101.165 92.8317 100.923 92.8317 100.668C92.8317 100.378 92.7636 100.128 92.6272 99.9176C92.4908 99.7045 92.3048 99.5412 92.069 99.4276C91.8332 99.3111 91.5675 99.2528 91.2721 99.2528C90.9596 99.2528 90.6869 99.3168 90.4539 99.4446C90.2209 99.5724 90.042 99.7528 89.917 99.9858C89.792 100.219 89.7295 100.491 89.7295 100.804H88.4724C88.4724 100.273 88.5945 99.8082 88.8388 99.4105C89.0832 99.0128 89.4184 98.7045 89.8445 98.4858C90.2707 98.2642 90.755 98.1534 91.2977 98.1534C91.8459 98.1534 92.3289 98.2628 92.7465 98.4815C93.167 98.6974 93.4951 98.9929 93.7309 99.3679C93.9667 99.7401 94.0846 100.161 94.0846 100.629C94.0846 100.953 94.0235 101.27 93.9013 101.58C93.782 101.889 93.5732 102.234 93.2749 102.615C92.9766 102.993 92.5619 103.452 92.0306 103.991L90.2962 105.807V105.871H94.2252V107H88.4809ZM97.7315 103.114V107H96.4573V100.455H97.6803V101.52H97.7613C97.9119 101.173 98.1477 100.895 98.4687 100.685C98.7925 100.474 99.2002 100.369 99.6917 100.369C100.138 100.369 100.528 100.463 100.864 100.651C101.199 100.835 101.459 101.111 101.643 101.477C101.828 101.844 101.92 102.297 101.92 102.837V107H100.646V102.99C100.646 102.516 100.523 102.145 100.275 101.878C100.028 101.608 99.6888 101.473 99.257 101.473C98.9616 101.473 98.6988 101.537 98.4687 101.665C98.2414 101.793 98.061 101.98 97.9275 102.227C97.7968 102.472 97.7315 102.767 97.7315 103.114ZM106.679 107.128C106.151 107.128 105.679 106.993 105.265 106.723C104.853 106.45 104.529 106.062 104.293 105.56C104.06 105.054 103.944 104.447 103.944 103.74C103.944 103.033 104.062 102.428 104.297 101.925C104.536 101.422 104.863 101.037 105.277 100.77C105.692 100.503 106.162 100.369 106.688 100.369C107.094 100.369 107.421 100.438 107.668 100.574C107.918 100.707 108.111 100.864 108.248 101.043C108.387 101.222 108.495 101.379 108.572 101.516H108.648V98.2727H109.922V107H108.678V105.982H108.572C108.495 106.121 108.384 106.28 108.239 106.459C108.097 106.638 107.901 106.794 107.651 106.928C107.401 107.061 107.077 107.128 106.679 107.128ZM106.961 106.041C107.327 106.041 107.637 105.945 107.89 105.751C108.145 105.555 108.339 105.284 108.469 104.938C108.603 104.591 108.67 104.187 108.67 103.727C108.67 103.273 108.604 102.875 108.474 102.534C108.343 102.193 108.151 101.928 107.898 101.737C107.645 101.547 107.333 101.452 106.961 101.452C106.577 101.452 106.258 101.551 106.002 101.75C105.746 101.949 105.553 102.22 105.422 102.564C105.295 102.908 105.231 103.295 105.231 103.727C105.231 104.165 105.296 104.558 105.427 104.908C105.557 105.257 105.75 105.534 106.006 105.739C106.265 105.94 106.583 106.041 106.961 106.041ZM120.979 100.565C120.933 100.162 120.746 99.8494 120.416 99.6278C120.087 99.4034 119.672 99.2912 119.172 99.2912C118.814 99.2912 118.504 99.348 118.243 99.4616C117.982 99.5724 117.779 99.7259 117.634 99.9219C117.492 100.115 117.421 100.335 117.421 100.582C117.421 100.79 117.469 100.969 117.566 101.119C117.665 101.27 117.794 101.396 117.953 101.499C118.115 101.598 118.289 101.682 118.473 101.75C118.658 101.815 118.835 101.869 119.006 101.912L119.858 102.134C120.137 102.202 120.422 102.294 120.715 102.411C121.007 102.527 121.279 102.68 121.529 102.871C121.779 103.061 121.98 103.297 122.134 103.578C122.29 103.859 122.368 104.196 122.368 104.588C122.368 105.082 122.24 105.521 121.985 105.905C121.732 106.288 121.364 106.591 120.881 106.812C120.401 107.034 119.82 107.145 119.138 107.145C118.485 107.145 117.919 107.041 117.442 106.834C116.965 106.626 116.591 106.332 116.321 105.952C116.051 105.568 115.902 105.114 115.874 104.588H117.195C117.22 104.903 117.323 105.166 117.502 105.376C117.683 105.584 117.915 105.739 118.196 105.841C118.48 105.94 118.791 105.99 119.129 105.99C119.502 105.99 119.833 105.932 120.122 105.815C120.415 105.696 120.645 105.531 120.813 105.321C120.98 105.108 121.064 104.859 121.064 104.575C121.064 104.317 120.99 104.105 120.843 103.94C120.698 103.776 120.5 103.639 120.25 103.531C120.003 103.423 119.723 103.328 119.411 103.246L118.379 102.964C117.681 102.774 117.127 102.494 116.718 102.125C116.311 101.756 116.108 101.267 116.108 100.659C116.108 100.156 116.245 99.7173 116.517 99.3423C116.79 98.9673 117.159 98.6761 117.625 98.4688C118.091 98.2585 118.617 98.1534 119.202 98.1534C119.793 98.1534 120.314 98.2571 120.766 98.4645C121.22 98.6719 121.578 98.9574 121.84 99.321C122.101 99.6818 122.237 100.097 122.249 100.565H120.979ZM127.26 107.132C126.615 107.132 126.06 106.994 125.594 106.719C125.131 106.44 124.773 106.05 124.52 105.547C124.27 105.041 124.145 104.449 124.145 103.77C124.145 103.099 124.27 102.509 124.52 101.997C124.773 101.486 125.125 101.087 125.577 100.8C126.032 100.513 126.563 100.369 127.171 100.369C127.54 100.369 127.898 100.43 128.245 100.553C128.591 100.675 128.902 100.866 129.178 101.128C129.454 101.389 129.671 101.729 129.83 102.146C129.989 102.561 130.069 103.065 130.069 103.659V104.111H124.865V103.156H128.82C128.82 102.821 128.752 102.524 128.615 102.266C128.479 102.004 128.287 101.798 128.04 101.648C127.796 101.497 127.509 101.422 127.179 101.422C126.821 101.422 126.509 101.51 126.242 101.686C125.978 101.859 125.773 102.087 125.628 102.368C125.486 102.646 125.415 102.949 125.415 103.276V104.021C125.415 104.459 125.492 104.831 125.645 105.138C125.802 105.445 126.019 105.679 126.297 105.841C126.576 106 126.901 106.08 127.273 106.08C127.515 106.08 127.735 106.045 127.934 105.977C128.133 105.906 128.304 105.801 128.449 105.662C128.594 105.523 128.705 105.351 128.782 105.146L129.988 105.364C129.891 105.719 129.718 106.03 129.468 106.297C129.221 106.561 128.91 106.767 128.535 106.915C128.162 107.06 127.738 107.132 127.26 107.132ZM132.082 107V100.455H133.305V101.52H133.386C133.523 101.159 133.746 100.878 134.055 100.676C134.365 100.472 134.736 100.369 135.168 100.369C135.605 100.369 135.972 100.472 136.267 100.676C136.565 100.881 136.785 101.162 136.927 101.52H136.996C137.152 101.17 137.4 100.892 137.741 100.685C138.082 100.474 138.489 100.369 138.96 100.369C139.554 100.369 140.038 100.555 140.413 100.928C140.791 101.3 140.98 101.861 140.98 102.611V107H139.706V102.73C139.706 102.287 139.585 101.966 139.344 101.767C139.102 101.568 138.814 101.469 138.479 101.469C138.064 101.469 137.741 101.597 137.511 101.852C137.281 102.105 137.166 102.43 137.166 102.828V107H135.896V102.649C135.896 102.294 135.785 102.009 135.564 101.793C135.342 101.577 135.054 101.469 134.699 101.469C134.457 101.469 134.234 101.533 134.03 101.661C133.828 101.786 133.665 101.96 133.54 102.185C133.418 102.409 133.356 102.669 133.356 102.964V107H132.082ZM146.109 107.132C145.464 107.132 144.909 106.994 144.443 106.719C143.98 106.44 143.622 106.05 143.369 105.547C143.119 105.041 142.994 104.449 142.994 103.77C142.994 103.099 143.119 102.509 143.369 101.997C143.622 101.486 143.974 101.087 144.426 100.8C144.88 100.513 145.411 100.369 146.019 100.369C146.389 100.369 146.747 100.43 147.093 100.553C147.44 100.675 147.751 100.866 148.026 101.128C148.302 101.389 148.519 101.729 148.678 102.146C148.837 102.561 148.917 103.065 148.917 103.659V104.111H143.714V103.156H147.668C147.668 102.821 147.6 102.524 147.464 102.266C147.328 102.004 147.136 101.798 146.889 101.648C146.644 101.497 146.357 101.422 146.028 101.422C145.67 101.422 145.357 101.51 145.09 101.686C144.826 101.859 144.622 102.087 144.477 102.368C144.335 102.646 144.264 102.949 144.264 103.276V104.021C144.264 104.459 144.34 104.831 144.494 105.138C144.65 105.445 144.867 105.679 145.146 105.841C145.424 106 145.749 106.08 146.122 106.08C146.363 106.08 146.583 106.045 146.782 105.977C146.981 105.906 147.153 105.801 147.298 105.662C147.443 105.523 147.553 105.351 147.63 105.146L148.836 105.364C148.739 105.719 148.566 106.03 148.316 106.297C148.069 106.561 147.758 106.767 147.383 106.915C147.011 107.06 146.586 107.132 146.109 107.132ZM155.836 102.053L154.681 102.257C154.632 102.109 154.556 101.969 154.451 101.835C154.348 101.702 154.209 101.592 154.033 101.507C153.857 101.422 153.637 101.379 153.373 101.379C153.012 101.379 152.711 101.46 152.469 101.622C152.228 101.781 152.107 101.987 152.107 102.24C152.107 102.459 152.188 102.635 152.35 102.768C152.512 102.902 152.773 103.011 153.134 103.097L154.174 103.335C154.776 103.474 155.225 103.689 155.52 103.979C155.816 104.268 155.963 104.645 155.963 105.108C155.963 105.5 155.85 105.849 155.623 106.156C155.398 106.46 155.084 106.699 154.681 106.872C154.28 107.045 153.816 107.132 153.287 107.132C152.554 107.132 151.956 106.976 151.493 106.663C151.03 106.348 150.746 105.901 150.641 105.321L151.873 105.134C151.949 105.455 152.107 105.697 152.346 105.862C152.584 106.024 152.895 106.105 153.279 106.105C153.696 106.105 154.03 106.018 154.28 105.845C154.53 105.669 154.655 105.455 154.655 105.202C154.655 104.997 154.578 104.825 154.425 104.686C154.275 104.547 154.043 104.442 153.73 104.371L152.623 104.128C152.012 103.989 151.56 103.767 151.267 103.463C150.978 103.159 150.833 102.774 150.833 102.308C150.833 101.922 150.941 101.584 151.157 101.294C151.373 101.004 151.671 100.778 152.051 100.616C152.432 100.452 152.868 100.369 153.36 100.369C154.067 100.369 154.624 100.523 155.03 100.83C155.436 101.134 155.705 101.541 155.836 102.053ZM161.02 100.455V101.477H157.444V100.455H161.02ZM158.403 98.8864H159.677V105.078C159.677 105.325 159.714 105.511 159.788 105.636C159.862 105.759 159.957 105.842 160.074 105.888C160.193 105.93 160.322 105.952 160.461 105.952C160.564 105.952 160.653 105.945 160.73 105.93C160.807 105.916 160.866 105.905 160.909 105.896L161.139 106.949C161.065 106.977 160.96 107.006 160.824 107.034C160.687 107.065 160.517 107.082 160.312 107.085C159.977 107.091 159.665 107.031 159.375 106.906C159.085 106.781 158.851 106.588 158.672 106.327C158.493 106.065 158.403 105.737 158.403 105.342V98.8864ZM165.78 107.132C165.135 107.132 164.58 106.994 164.114 106.719C163.651 106.44 163.293 106.05 163.04 105.547C162.79 105.041 162.665 104.449 162.665 103.77C162.665 103.099 162.79 102.509 163.04 101.997C163.293 101.486 163.645 101.087 164.097 100.8C164.551 100.513 165.082 100.369 165.69 100.369C166.06 100.369 166.418 100.43 166.764 100.553C167.111 100.675 167.422 100.866 167.698 101.128C167.973 101.389 168.19 101.729 168.35 102.146C168.509 102.561 168.588 103.065 168.588 103.659V104.111H163.385V103.156H167.34C167.34 102.821 167.271 102.524 167.135 102.266C166.999 102.004 166.807 101.798 166.56 101.648C166.315 101.497 166.028 101.422 165.699 101.422C165.341 101.422 165.028 101.51 164.761 101.686C164.497 101.859 164.293 102.087 164.148 102.368C164.006 102.646 163.935 102.949 163.935 103.276V104.021C163.935 104.459 164.011 104.831 164.165 105.138C164.321 105.445 164.538 105.679 164.817 105.841C165.095 106 165.421 106.08 165.793 106.08C166.034 106.08 166.254 106.045 166.453 105.977C166.652 105.906 166.824 105.801 166.969 105.662C167.114 105.523 167.225 105.351 167.301 105.146L168.507 105.364C168.411 105.719 168.237 106.03 167.987 106.297C167.74 106.561 167.429 106.767 167.054 106.915C166.682 107.06 166.257 107.132 165.78 107.132ZM170.602 107V100.455H171.833V101.494H171.902C172.021 101.142 172.231 100.865 172.532 100.663C172.836 100.459 173.18 100.357 173.563 100.357C173.643 100.357 173.737 100.359 173.845 100.365C173.956 100.371 174.042 100.378 174.105 100.386V101.605C174.054 101.591 173.963 101.575 173.832 101.558C173.701 101.538 173.571 101.528 173.44 101.528C173.139 101.528 172.87 101.592 172.635 101.72C172.402 101.845 172.217 102.02 172.081 102.244C171.944 102.466 171.876 102.719 171.876 103.003V107H170.602Z" fill="#54565A"/>
<path d="M29.6773 135H26.9842V126.273H29.7967C30.6433 126.273 31.3677 126.447 31.97 126.797C32.5722 127.143 33.0339 127.642 33.3549 128.293C33.6759 128.94 33.8364 129.716 33.8364 130.619C33.8364 131.528 33.6745 132.311 33.3506 132.967C33.0268 133.621 32.5552 134.124 31.9359 134.476C31.3166 134.825 30.5637 135 29.6773 135ZM28.041 134.062H29.6092C30.3308 134.062 30.9288 133.923 31.4032 133.645C31.8776 133.366 32.2313 132.97 32.4643 132.456C32.6972 131.942 32.8137 131.33 32.8137 130.619C32.8137 129.915 32.6987 129.308 32.4685 128.8C32.2384 128.288 31.8947 127.896 31.4373 127.624C30.9799 127.348 30.4103 127.21 29.7285 127.21H28.041V134.062ZM38.8171 135.136C38.1864 135.136 37.6424 134.997 37.185 134.719C36.7305 134.438 36.3796 134.045 36.1325 133.543C35.8881 133.037 35.766 132.449 35.766 131.778C35.766 131.108 35.8881 130.517 36.1325 130.006C36.3796 129.491 36.7234 129.091 37.1637 128.804C37.6069 128.514 38.1239 128.369 38.7148 128.369C39.0558 128.369 39.3924 128.426 39.7248 128.54C40.0572 128.653 40.3597 128.838 40.6325 129.094C40.9052 129.347 41.1225 129.682 41.2844 130.099C41.4464 130.517 41.5273 131.031 41.5273 131.642V132.068H36.4819V131.199H40.5046C40.5046 130.83 40.4308 130.5 40.283 130.21C40.1381 129.92 39.9308 129.692 39.6609 129.524C39.3938 129.357 39.0785 129.273 38.7148 129.273C38.3143 129.273 37.9677 129.372 37.6751 129.571C37.3853 129.767 37.1623 130.023 37.006 130.338C36.8498 130.653 36.7717 130.991 36.7717 131.352V131.932C36.7717 132.426 36.8569 132.845 37.0273 133.189C37.2006 133.53 37.4407 133.79 37.7475 133.969C38.0543 134.145 38.4109 134.233 38.8171 134.233C39.0813 134.233 39.32 134.196 39.533 134.122C39.7489 134.045 39.935 133.932 40.0913 133.781C40.2475 133.628 40.3683 133.437 40.4535 133.21L41.4251 133.483C41.3228 133.812 41.1509 134.102 40.9094 134.352C40.668 134.599 40.3697 134.793 40.0146 134.932C39.6594 135.068 39.2603 135.136 38.8171 135.136ZM43.6572 137.455V128.455H44.6288V129.494H44.7481C44.8219 129.381 44.9242 129.236 45.0549 129.06C45.1884 128.881 45.3788 128.722 45.6259 128.582C45.8759 128.44 46.214 128.369 46.6401 128.369C47.1913 128.369 47.6771 128.507 48.0975 128.783C48.518 129.058 48.8461 129.449 49.0819 129.955C49.3177 130.46 49.4356 131.057 49.4356 131.744C49.4356 132.438 49.3177 133.038 49.0819 133.547C48.8461 134.053 48.5194 134.445 48.1018 134.723C47.6842 134.999 47.2026 135.136 46.6572 135.136C46.2367 135.136 45.9001 135.067 45.6472 134.928C45.3944 134.786 45.1998 134.625 45.0634 134.446C44.9271 134.264 44.8219 134.114 44.7481 133.994H44.6629V137.455H43.6572ZM44.6458 131.727C44.6458 132.222 44.7183 132.658 44.8631 133.036C45.008 133.411 45.2197 133.705 45.4981 133.918C45.7765 134.128 46.1174 134.233 46.5208 134.233C46.9413 134.233 47.2921 134.122 47.5734 133.901C47.8575 133.676 48.0705 133.375 48.2126 132.997C48.3575 132.616 48.4299 132.193 48.4299 131.727C48.4299 131.267 48.3589 130.852 48.2168 130.483C48.0776 130.111 47.866 129.817 47.5819 129.601C47.3006 129.382 46.9469 129.273 46.5208 129.273C46.1117 129.273 45.768 129.376 45.4896 129.584C45.2112 129.788 45.0009 130.075 44.8589 130.445C44.7168 130.811 44.6458 131.239 44.6458 131.727ZM53.4958 135.153C53.081 135.153 52.7046 135.075 52.3665 134.919C52.0285 134.76 51.76 134.531 51.5612 134.233C51.3623 133.932 51.2629 133.568 51.2629 133.142C51.2629 132.767 51.3367 132.463 51.4844 132.23C51.6322 131.994 51.8296 131.81 52.0768 131.676C52.3239 131.543 52.5967 131.443 52.895 131.378C53.1961 131.31 53.4987 131.256 53.8026 131.216C54.2004 131.165 54.5228 131.126 54.77 131.101C55.02 131.072 55.2018 131.026 55.3154 130.96C55.4319 130.895 55.4901 130.781 55.4901 130.619V130.585C55.4901 130.165 55.3751 129.838 55.145 129.605C54.9177 129.372 54.5725 129.256 54.1094 129.256C53.6293 129.256 53.2529 129.361 52.9802 129.571C52.7075 129.781 52.5157 130.006 52.4049 130.244L51.4504 129.903C51.6208 129.506 51.8481 129.196 52.1322 128.974C52.4191 128.75 52.7316 128.594 53.0697 128.506C53.4106 128.415 53.7458 128.369 54.0754 128.369C54.2856 128.369 54.5271 128.395 54.7998 128.446C55.0754 128.494 55.341 128.595 55.5967 128.749C55.8552 128.902 56.0697 129.134 56.2401 129.443C56.4106 129.753 56.4958 130.168 56.4958 130.688V135H55.4901V134.114H55.439C55.3708 134.256 55.2572 134.408 55.0981 134.57C54.939 134.732 54.7273 134.869 54.4631 134.983C54.1989 135.097 53.8765 135.153 53.4958 135.153ZM53.6492 134.25C54.0469 134.25 54.3822 134.172 54.6549 134.016C54.9305 133.859 55.1379 133.658 55.2771 133.411C55.4191 133.163 55.4901 132.903 55.4901 132.631V131.71C55.4475 131.761 55.3538 131.808 55.2089 131.851C55.0668 131.891 54.9021 131.926 54.7146 131.957C54.5299 131.986 54.3495 132.011 54.1734 132.034C54.0001 132.054 53.8594 132.071 53.7515 132.085C53.4901 132.119 53.2458 132.175 53.0185 132.251C52.7941 132.325 52.6123 132.437 52.4731 132.588C52.3367 132.736 52.2685 132.937 52.2685 133.193C52.2685 133.543 52.3978 133.807 52.6563 133.986C52.9177 134.162 53.2487 134.25 53.6492 134.25ZM58.9314 135V128.455H59.903V129.443H59.9712C60.0905 129.119 60.3064 128.857 60.6189 128.655C60.9314 128.453 61.2837 128.352 61.6757 128.352C61.7496 128.352 61.8419 128.354 61.9527 128.357C62.0635 128.359 62.1473 128.364 62.2041 128.369V129.392C62.17 129.384 62.0919 129.371 61.9697 129.354C61.8504 129.334 61.724 129.324 61.5905 129.324C61.2723 129.324 60.9882 129.391 60.7382 129.524C60.4911 129.655 60.295 129.837 60.1501 130.07C60.0081 130.3 59.9371 130.562 59.9371 130.858V135H58.9314ZM67.253 128.455V129.307H63.8609V128.455H67.253ZM64.8496 126.886H65.8553V133.125C65.8553 133.409 65.8965 133.622 65.9788 133.764C66.0641 133.903 66.172 133.997 66.3027 134.045C66.4362 134.091 66.5768 134.114 66.7246 134.114C66.8354 134.114 66.9263 134.108 66.9973 134.097C67.0683 134.082 67.1251 134.071 67.1678 134.062L67.3723 134.966C67.3041 134.991 67.209 135.017 67.0868 135.043C66.9646 135.071 66.8098 135.085 66.6223 135.085C66.3382 135.085 66.0598 135.024 65.7871 134.902C65.5172 134.78 65.2928 134.594 65.1138 134.344C64.9376 134.094 64.8496 133.778 64.8496 133.398V126.886ZM69.3658 135V128.455H70.3374V129.477H70.4226C70.5589 129.128 70.7791 128.857 71.0831 128.663C71.3871 128.467 71.7521 128.369 72.1783 128.369C72.6101 128.369 72.9695 128.467 73.2564 128.663C73.5462 128.857 73.772 129.128 73.9339 129.477H74.0021C74.1697 129.139 74.4212 128.871 74.7564 128.672C75.0916 128.47 75.4936 128.369 75.9624 128.369C76.5476 128.369 77.0263 128.553 77.3984 128.919C77.7706 129.283 77.9567 129.849 77.9567 130.619V135H76.951V130.619C76.951 130.136 76.8189 129.791 76.5547 129.584C76.2905 129.376 75.9794 129.273 75.6214 129.273C75.1612 129.273 74.8047 129.412 74.5518 129.69C74.299 129.966 74.1726 130.315 74.1726 130.739V135H73.1499V130.517C73.1499 130.145 73.0291 129.845 72.7876 129.618C72.5462 129.388 72.2351 129.273 71.8544 129.273C71.593 129.273 71.3487 129.342 71.1214 129.482C70.897 129.621 70.7152 129.814 70.576 130.061C70.4396 130.305 70.3714 130.588 70.3714 130.909V135H69.3658ZM83.1398 135.136C82.5091 135.136 81.9651 134.997 81.5077 134.719C81.0531 134.438 80.7023 134.045 80.4551 133.543C80.2108 133.037 80.0886 132.449 80.0886 131.778C80.0886 131.108 80.2108 130.517 80.4551 130.006C80.7023 129.491 81.046 129.091 81.4864 128.804C81.9295 128.514 82.4466 128.369 83.0375 128.369C83.3784 128.369 83.7151 128.426 84.0474 128.54C84.3798 128.653 84.6824 128.838 84.9551 129.094C85.2278 129.347 85.4452 129.682 85.6071 130.099C85.769 130.517 85.85 131.031 85.85 131.642V132.068H80.8045V131.199H84.8273C84.8273 130.83 84.7534 130.5 84.6057 130.21C84.4608 129.92 84.2534 129.692 83.9835 129.524C83.7165 129.357 83.4011 129.273 83.0375 129.273C82.6369 129.273 82.2903 129.372 81.9977 129.571C81.708 129.767 81.4849 130.023 81.3287 130.338C81.1724 130.653 81.0943 130.991 81.0943 131.352V131.932C81.0943 132.426 81.1795 132.845 81.35 133.189C81.5233 133.53 81.7634 133.79 82.0702 133.969C82.377 134.145 82.7335 134.233 83.1398 134.233C83.404 134.233 83.6426 134.196 83.8557 134.122C84.0716 134.045 84.2577 133.932 84.4139 133.781C84.5702 133.628 84.6909 133.437 84.7761 133.21L85.7477 133.483C85.6455 133.812 85.4736 134.102 85.2321 134.352C84.9906 134.599 84.6923 134.793 84.3372 134.932C83.9821 135.068 83.583 135.136 83.1398 135.136ZM88.9855 131.062V135H87.9798V128.455H88.9514V129.477H89.0366C89.1901 129.145 89.423 128.878 89.7355 128.676C90.048 128.472 90.4514 128.369 90.9457 128.369C91.3889 128.369 91.7767 128.46 92.1091 128.642C92.4415 128.821 92.7 129.094 92.8847 129.46C93.0693 129.824 93.1616 130.284 93.1616 130.841V135H92.156V130.909C92.156 130.395 92.0224 129.994 91.7554 129.707C91.4884 129.418 91.1219 129.273 90.656 129.273C90.3349 129.273 90.048 129.342 89.7952 129.482C89.5452 129.621 89.3477 129.824 89.2028 130.091C89.058 130.358 88.9855 130.682 88.9855 131.062ZM98.446 128.455V129.307H95.0539V128.455H98.446ZM96.0425 126.886H97.0482V133.125C97.0482 133.409 97.0894 133.622 97.1718 133.764C97.257 133.903 97.365 133.997 97.4957 134.045C97.6292 134.091 97.7698 134.114 97.9175 134.114C98.0283 134.114 98.1193 134.108 98.1903 134.097C98.2613 134.082 98.3181 134.071 98.3607 134.062L98.5653 134.966C98.4971 134.991 98.4019 135.017 98.2798 135.043C98.1576 135.071 98.0028 135.085 97.8153 135.085C97.5312 135.085 97.2528 135.024 96.98 134.902C96.7102 134.78 96.4857 134.594 96.3068 134.344C96.1306 134.094 96.0425 133.778 96.0425 133.398V126.886ZM103.644 125.864L100.831 136.312H99.911L102.724 125.864H103.644ZM116.57 129H115.513C115.451 128.696 115.341 128.429 115.185 128.199C115.032 127.969 114.844 127.776 114.623 127.619C114.404 127.46 114.161 127.341 113.894 127.261C113.627 127.182 113.349 127.142 113.059 127.142C112.53 127.142 112.052 127.276 111.623 127.543C111.197 127.81 110.857 128.203 110.604 128.723C110.354 129.243 110.229 129.881 110.229 130.636C110.229 131.392 110.354 132.03 110.604 132.55C110.857 133.07 111.197 133.463 111.623 133.73C112.052 133.997 112.53 134.131 113.059 134.131C113.349 134.131 113.627 134.091 113.894 134.011C114.161 133.932 114.404 133.814 114.623 133.658C114.844 133.499 115.032 133.304 115.185 133.074C115.341 132.841 115.451 132.574 115.513 132.273H116.57C116.491 132.719 116.346 133.118 116.136 133.47C115.925 133.822 115.664 134.122 115.351 134.369C115.039 134.614 114.688 134.8 114.299 134.928C113.912 135.055 113.499 135.119 113.059 135.119C112.314 135.119 111.653 134.938 111.073 134.574C110.493 134.21 110.037 133.693 109.705 133.023C109.373 132.352 109.207 131.557 109.207 130.636C109.207 129.716 109.373 128.92 109.705 128.25C110.037 127.58 110.493 127.062 111.073 126.699C111.653 126.335 112.314 126.153 113.059 126.153C113.499 126.153 113.912 126.217 114.299 126.345C114.688 126.473 115.039 126.661 115.351 126.908C115.664 127.152 115.925 127.45 116.136 127.803C116.346 128.152 116.491 128.551 116.57 129ZM121.401 135.136C120.81 135.136 120.291 134.996 119.845 134.714C119.402 134.433 119.055 134.04 118.805 133.534C118.558 133.028 118.435 132.437 118.435 131.761C118.435 131.08 118.558 130.484 118.805 129.976C119.055 129.467 119.402 129.072 119.845 128.791C120.291 128.51 120.81 128.369 121.401 128.369C121.992 128.369 122.509 128.51 122.952 128.791C123.398 129.072 123.744 129.467 123.992 129.976C124.242 130.484 124.367 131.08 124.367 131.761C124.367 132.437 124.242 133.028 123.992 133.534C123.744 134.04 123.398 134.433 122.952 134.714C122.509 134.996 121.992 135.136 121.401 135.136ZM121.401 134.233C121.85 134.233 122.219 134.118 122.509 133.888C122.798 133.658 123.013 133.355 123.152 132.98C123.291 132.605 123.361 132.199 123.361 131.761C123.361 131.324 123.291 130.916 123.152 130.538C123.013 130.161 122.798 129.855 122.509 129.622C122.219 129.389 121.85 129.273 121.401 129.273C120.952 129.273 120.582 129.389 120.293 129.622C120.003 129.855 119.788 130.161 119.649 130.538C119.51 130.916 119.44 131.324 119.44 131.761C119.44 132.199 119.51 132.605 119.649 132.98C119.788 133.355 120.003 133.658 120.293 133.888C120.582 134.118 120.952 134.233 121.401 134.233ZM130.627 132.324V128.455H131.632V135H130.627V133.892H130.559C130.405 134.224 130.166 134.507 129.843 134.74C129.519 134.97 129.11 135.085 128.615 135.085C128.206 135.085 127.843 134.996 127.524 134.817C127.206 134.635 126.956 134.362 126.774 133.999C126.593 133.632 126.502 133.17 126.502 132.614V128.455H127.507V132.545C127.507 133.023 127.641 133.403 127.908 133.688C128.178 133.972 128.522 134.114 128.939 134.114C129.189 134.114 129.443 134.05 129.702 133.922C129.963 133.794 130.182 133.598 130.358 133.334C130.537 133.07 130.627 132.733 130.627 132.324ZM134.074 135V128.455H135.046V129.443H135.114C135.233 129.119 135.449 128.857 135.762 128.655C136.074 128.453 136.427 128.352 136.819 128.352C136.893 128.352 136.985 128.354 137.096 128.357C137.206 128.359 137.29 128.364 137.347 128.369V129.392C137.313 129.384 137.235 129.371 137.113 129.354C136.993 129.334 136.867 129.324 136.733 129.324C136.415 129.324 136.131 129.391 135.881 129.524C135.634 129.655 135.438 129.837 135.293 130.07C135.151 130.3 135.08 130.562 135.08 130.858V135H134.074ZM143.776 129.92L142.872 130.176C142.815 130.026 142.732 129.879 142.621 129.737C142.513 129.592 142.365 129.473 142.178 129.379C141.99 129.286 141.75 129.239 141.457 129.239C141.057 129.239 140.723 129.331 140.456 129.516C140.192 129.697 140.06 129.929 140.06 130.21C140.06 130.46 140.151 130.658 140.332 130.803C140.514 130.947 140.798 131.068 141.185 131.165L142.156 131.403C142.741 131.545 143.178 131.763 143.464 132.055C143.751 132.345 143.895 132.719 143.895 133.176C143.895 133.551 143.787 133.886 143.571 134.182C143.358 134.477 143.06 134.71 142.676 134.881C142.293 135.051 141.847 135.136 141.338 135.136C140.67 135.136 140.118 134.991 139.68 134.702C139.243 134.412 138.966 133.989 138.849 133.432L139.804 133.193C139.895 133.545 140.067 133.81 140.32 133.986C140.575 134.162 140.909 134.25 141.321 134.25C141.79 134.25 142.162 134.151 142.438 133.952C142.716 133.75 142.855 133.509 142.855 133.227C142.855 133 142.776 132.81 142.616 132.656C142.457 132.5 142.213 132.384 141.884 132.307L140.793 132.051C140.193 131.909 139.753 131.689 139.472 131.391C139.193 131.089 139.054 130.713 139.054 130.261C139.054 129.892 139.158 129.565 139.365 129.281C139.575 128.997 139.861 128.774 140.222 128.612C140.585 128.45 140.997 128.369 141.457 128.369C142.105 128.369 142.614 128.511 142.983 128.795C143.355 129.08 143.619 129.455 143.776 129.92ZM148.753 135.136C148.122 135.136 147.578 134.997 147.121 134.719C146.666 134.438 146.316 134.045 146.068 133.543C145.824 133.037 145.702 132.449 145.702 131.778C145.702 131.108 145.824 130.517 146.068 130.006C146.316 129.491 146.659 129.091 147.1 128.804C147.543 128.514 148.06 128.369 148.651 128.369C148.992 128.369 149.328 128.426 149.661 128.54C149.993 128.653 150.296 128.838 150.568 129.094C150.841 129.347 151.058 129.682 151.22 130.099C151.382 130.517 151.463 131.031 151.463 131.642V132.068H146.418V131.199H150.441C150.441 130.83 150.367 130.5 150.219 130.21C150.074 129.92 149.867 129.692 149.597 129.524C149.33 129.357 149.014 129.273 148.651 129.273C148.25 129.273 147.904 129.372 147.611 129.571C147.321 129.767 147.098 130.023 146.942 130.338C146.786 130.653 146.708 130.991 146.708 131.352V131.932C146.708 132.426 146.793 132.845 146.963 133.189C147.137 133.53 147.377 133.79 147.683 133.969C147.99 134.145 148.347 134.233 148.753 134.233C149.017 134.233 149.256 134.196 149.469 134.122C149.685 134.045 149.871 133.932 150.027 133.781C150.183 133.628 150.304 133.437 150.389 133.21L151.361 133.483C151.259 133.812 151.087 134.102 150.845 134.352C150.604 134.599 150.306 134.793 149.95 134.932C149.595 135.068 149.196 135.136 148.753 135.136Z" fill="#A6A6A6"/>
<path d="M34.2209 152.328H32.3544C32.3203 152.087 32.2507 151.872 32.1456 151.685C32.0405 151.494 31.9056 151.332 31.7408 151.199C31.576 151.065 31.3857 150.963 31.1698 150.892C30.9567 150.821 30.7252 150.786 30.4752 150.786C30.0235 150.786 29.63 150.898 29.2948 151.122C28.9596 151.344 28.6996 151.668 28.5149 152.094C28.3303 152.517 28.238 153.031 28.238 153.636C28.238 154.259 28.3303 154.781 28.5149 155.205C28.7024 155.628 28.9638 155.947 29.299 156.163C29.6343 156.379 30.0221 156.487 30.4624 156.487C30.7096 156.487 30.9382 156.455 31.1485 156.389C31.3615 156.324 31.5505 156.229 31.7152 156.104C31.88 155.976 32.0164 155.821 32.1243 155.639C32.2351 155.457 32.3118 155.25 32.3544 155.017L34.2209 155.026C34.1726 155.426 34.0519 155.812 33.8587 156.185C33.6684 156.554 33.4113 156.885 33.0874 157.178C32.7664 157.467 32.3828 157.697 31.9368 157.868C31.4936 158.036 30.9922 158.119 30.4326 158.119C29.6542 158.119 28.9581 157.943 28.3445 157.591C27.7337 157.239 27.2507 156.729 26.8956 156.061C26.5434 155.393 26.3672 154.585 26.3672 153.636C26.3672 152.685 26.5462 151.875 26.9042 151.207C27.2621 150.54 27.7479 150.031 28.3615 149.682C28.9752 149.33 29.6655 149.153 30.4326 149.153C30.9382 149.153 31.407 149.224 31.8388 149.366C32.2735 149.509 32.6584 149.716 32.9936 149.989C33.3289 150.259 33.6016 150.589 33.8118 150.982C34.0249 151.374 34.1613 151.822 34.2209 152.328ZM37.9253 154.216V158H36.11V149.273H37.8742V152.609H37.9509C38.0986 152.223 38.3373 151.92 38.6668 151.702C38.9963 151.48 39.4097 151.369 39.9069 151.369C40.3614 151.369 40.7577 151.469 41.0958 151.668C41.4367 151.864 41.7009 152.146 41.8884 152.516C42.0787 152.882 42.1725 153.321 42.1696 153.832V158H40.3543V154.156C40.3571 153.753 40.2549 153.439 40.0475 153.214C39.8429 152.99 39.556 152.878 39.1867 152.878C38.9395 152.878 38.7208 152.93 38.5304 153.036C38.3429 153.141 38.1952 153.294 38.0873 153.496C37.9821 153.695 37.9282 153.935 37.9253 154.216ZM47.1812 158.128C46.5079 158.128 45.9284 157.991 45.4426 157.719C44.9596 157.443 44.5875 157.054 44.3261 156.551C44.0647 156.045 43.9341 155.447 43.9341 154.757C43.9341 154.084 44.0647 153.493 44.3261 152.984C44.5875 152.476 44.9554 152.08 45.4298 151.795C45.9071 151.511 46.4667 151.369 47.1088 151.369C47.5406 151.369 47.9426 151.439 48.3147 151.578C48.6897 151.714 49.0164 151.92 49.2949 152.196C49.5761 152.472 49.7949 152.818 49.9511 153.236C50.1074 153.651 50.1855 154.136 50.1855 154.693V155.192H44.6585V154.067H48.4767C48.4767 153.805 48.4199 153.574 48.3062 153.372C48.1926 153.17 48.0349 153.013 47.8332 152.899C47.6343 152.783 47.4028 152.724 47.1386 152.724C46.863 152.724 46.6187 152.788 46.4056 152.916C46.1954 153.041 46.0306 153.21 45.9113 153.423C45.792 153.634 45.7309 153.868 45.7281 154.126V155.196C45.7281 155.52 45.7877 155.8 45.9071 156.036C46.0292 156.271 46.2011 156.453 46.4227 156.581C46.6443 156.709 46.9071 156.773 47.211 156.773C47.4127 156.773 47.5974 156.744 47.765 156.688C47.9326 156.631 48.0761 156.545 48.1954 156.432C48.3147 156.318 48.4056 156.179 48.4681 156.014L50.1471 156.125C50.0619 156.528 49.8872 156.881 49.623 157.182C49.3616 157.48 49.0235 157.713 48.6088 157.881C48.1968 158.045 47.721 158.128 47.1812 158.128ZM51.9701 158V151.455H53.7002V152.609H53.777C53.9133 152.226 54.1406 151.923 54.4588 151.702C54.777 151.48 55.1576 151.369 55.6008 151.369C56.0497 151.369 56.4318 151.482 56.7471 151.706C57.0625 151.928 57.2727 152.229 57.3778 152.609H57.446C57.5795 152.234 57.821 151.935 58.1704 151.71C58.5227 151.483 58.9389 151.369 59.419 151.369C60.0298 151.369 60.5255 151.564 60.9062 151.953C61.2897 152.339 61.4815 152.888 61.4815 153.598V158H59.6704V153.956C59.6704 153.592 59.5738 153.32 59.3806 153.138C59.1875 152.956 58.946 152.865 58.6562 152.865C58.3267 152.865 58.0696 152.97 57.8849 153.18C57.7002 153.388 57.6079 153.662 57.6079 154.003V158H55.848V153.918C55.848 153.597 55.7556 153.341 55.571 153.151C55.3892 152.96 55.1491 152.865 54.8508 152.865C54.6491 152.865 54.4673 152.916 54.3054 153.018C54.1463 153.118 54.0198 153.259 53.9261 153.44C53.8323 153.619 53.7855 153.83 53.7855 154.071V158H51.9701ZM63.5154 158V151.455H65.3308V158H63.5154ZM64.4274 150.611C64.1575 150.611 63.926 150.521 63.7328 150.342C63.5424 150.161 63.4473 149.943 63.4473 149.69C63.4473 149.44 63.5424 149.226 63.7328 149.047C63.926 148.865 64.1575 148.774 64.4274 148.774C64.6973 148.774 64.9274 148.865 65.1177 149.047C65.3109 149.226 65.4075 149.44 65.4075 149.69C65.4075 149.943 65.3109 150.161 65.1177 150.342C64.9274 150.521 64.6973 150.611 64.4274 150.611ZM70.3424 158.128C69.6719 158.128 69.0952 157.986 68.6122 157.702C68.1321 157.415 67.7628 157.017 67.5043 156.509C67.2486 156 67.1208 155.415 67.1208 154.753C67.1208 154.082 67.25 153.494 67.5086 152.989C67.7699 152.48 68.1407 152.084 68.6208 151.8C69.1009 151.513 69.6719 151.369 70.3338 151.369C70.9049 151.369 71.4049 151.473 71.8338 151.68C72.2628 151.888 72.6023 152.179 72.8523 152.554C73.1023 152.929 73.2401 153.369 73.2657 153.875H71.5526C71.5043 153.548 71.3765 153.286 71.1691 153.087C70.9645 152.885 70.6961 152.784 70.3637 152.784C70.0824 152.784 69.8367 152.861 69.6265 153.014C69.4191 153.165 69.2571 153.385 69.1407 153.675C69.0242 153.964 68.9659 154.315 68.9659 154.727C68.9659 155.145 69.0228 155.5 69.1364 155.793C69.2529 156.085 69.4162 156.308 69.6265 156.462C69.8367 156.615 70.0824 156.692 70.3637 156.692C70.5711 156.692 70.7571 156.649 70.9219 156.564C71.0895 156.479 71.2273 156.355 71.3353 156.193C71.4461 156.028 71.5185 155.831 71.5526 155.601H73.2657C73.2372 156.101 73.1009 156.541 72.8566 156.922C72.6151 157.3 72.2813 157.595 71.8551 157.808C71.429 158.021 70.9248 158.128 70.3424 158.128ZM76.8944 158.124C76.4768 158.124 76.1046 158.051 75.7779 157.906C75.4512 157.759 75.1927 157.541 75.0024 157.254C74.8149 156.964 74.7211 156.604 74.7211 156.172C74.7211 155.808 74.7879 155.503 74.9214 155.256C75.0549 155.009 75.2368 154.81 75.4669 154.659C75.697 154.509 75.9583 154.395 76.251 154.318C76.5464 154.241 76.8561 154.188 77.1799 154.156C77.5606 154.116 77.8674 154.08 78.1004 154.045C78.3333 154.009 78.5024 153.955 78.6075 153.884C78.7126 153.812 78.7652 153.707 78.7652 153.568V153.543C78.7652 153.273 78.6799 153.064 78.5095 152.916C78.3419 152.768 78.1032 152.695 77.7936 152.695C77.4669 152.695 77.2069 152.767 77.0137 152.912C76.8206 153.054 76.6927 153.233 76.6302 153.449L74.9512 153.312C75.0365 152.915 75.2041 152.571 75.4541 152.281C75.7041 151.989 76.0265 151.764 76.4214 151.608C76.8191 151.449 77.2794 151.369 77.8021 151.369C78.1657 151.369 78.5137 151.412 78.8461 151.497C79.1814 151.582 79.4782 151.714 79.7368 151.893C79.9981 152.072 80.2041 152.303 80.3546 152.584C80.5052 152.862 80.5805 153.196 80.5805 153.585V158H78.8589V157.092H78.8078C78.7027 157.297 78.562 157.477 78.3859 157.634C78.2098 157.787 77.9981 157.908 77.751 157.996C77.5038 158.081 77.2183 158.124 76.8944 158.124ZM77.4143 156.871C77.6814 156.871 77.9171 156.818 78.1217 156.713C78.3262 156.605 78.4868 156.46 78.6032 156.278C78.7197 156.097 78.7779 155.891 78.7779 155.661V154.966C78.7211 155.003 78.643 155.037 78.5436 155.068C78.447 155.097 78.3376 155.124 78.2154 155.149C78.0933 155.172 77.9711 155.193 77.849 155.213C77.7268 155.23 77.616 155.246 77.5166 155.26C77.3035 155.291 77.1174 155.341 76.9583 155.409C76.7993 155.477 76.6757 155.57 76.5876 155.686C76.4995 155.8 76.4555 155.942 76.4555 156.112C76.4555 156.359 76.545 156.548 76.724 156.679C76.9058 156.807 77.1359 156.871 77.4143 156.871ZM84.4042 149.273V158H82.5889V149.273H84.4042ZM94.6042 151.783C94.5701 151.439 94.4238 151.172 94.1653 150.982C93.9068 150.791 93.5559 150.696 93.1127 150.696C92.8116 150.696 92.5574 150.739 92.35 150.824C92.1426 150.906 91.9835 151.021 91.8727 151.169C91.7647 151.317 91.7108 151.484 91.7108 151.672C91.7051 151.828 91.7377 151.964 91.8088 152.081C91.8826 152.197 91.9835 152.298 92.1113 152.384C92.2392 152.466 92.3869 152.538 92.5545 152.601C92.7221 152.661 92.9011 152.712 93.0914 152.754L93.8755 152.942C94.2562 153.027 94.6056 153.141 94.9238 153.283C95.242 153.425 95.5176 153.599 95.7505 153.807C95.9835 154.014 96.1639 154.259 96.2917 154.54C96.4224 154.821 96.4892 155.143 96.492 155.507C96.4892 156.041 96.3528 156.504 96.0829 156.896C95.8159 157.286 95.4295 157.588 94.9238 157.804C94.421 158.017 93.8145 158.124 93.1042 158.124C92.3997 158.124 91.786 158.016 91.2633 157.8C90.7434 157.584 90.3372 157.264 90.0446 156.841C89.7548 156.415 89.6028 155.888 89.5886 155.26H91.3741C91.394 155.553 91.4778 155.797 91.6255 155.993C91.7761 156.186 91.9764 156.332 92.2264 156.432C92.4792 156.528 92.7647 156.577 93.0829 156.577C93.3954 156.577 93.6667 156.531 93.8968 156.44C94.1298 156.349 94.3102 156.223 94.438 156.061C94.5659 155.899 94.6298 155.713 94.6298 155.503C94.6298 155.307 94.5716 155.142 94.4551 155.009C94.3414 154.875 94.1738 154.761 93.9522 154.668C93.7335 154.574 93.465 154.489 93.1468 154.412L92.1966 154.173C91.4608 153.994 90.8798 153.714 90.4537 153.334C90.0275 152.953 89.8159 152.44 89.8187 151.795C89.8159 151.267 89.9565 150.805 90.2406 150.411C90.5275 150.016 90.921 149.707 91.421 149.486C91.921 149.264 92.4892 149.153 93.1255 149.153C93.7733 149.153 94.3386 149.264 94.8216 149.486C95.3074 149.707 95.6852 150.016 95.9551 150.411C96.225 150.805 96.3642 151.263 96.3727 151.783H94.6042ZM101.256 158.128C100.586 158.128 100.009 157.986 99.5263 157.702C99.0462 157.415 98.6769 157.017 98.4184 156.509C98.1627 156 98.0348 155.415 98.0348 154.753C98.0348 154.082 98.1641 153.494 98.4226 152.989C98.684 152.48 99.0547 152.084 99.5348 151.8C100.015 151.513 100.586 151.369 101.248 151.369C101.819 151.369 102.319 151.473 102.748 151.68C103.177 151.888 103.516 152.179 103.766 152.554C104.016 152.929 104.154 153.369 104.18 153.875H102.467C102.418 153.548 102.291 153.286 102.083 153.087C101.879 152.885 101.61 152.784 101.278 152.784C100.996 152.784 100.751 152.861 100.541 153.014C100.333 153.165 100.171 153.385 100.055 153.675C99.9382 153.964 99.88 154.315 99.88 154.727C99.88 155.145 99.9368 155.5 100.05 155.793C100.167 156.085 100.33 156.308 100.541 156.462C100.751 156.615 100.996 156.692 101.278 156.692C101.485 156.692 101.671 156.649 101.836 156.564C102.004 156.479 102.141 156.355 102.249 156.193C102.36 156.028 102.433 155.831 102.467 155.601H104.18C104.151 156.101 104.015 156.541 103.771 156.922C103.529 157.3 103.195 157.595 102.769 157.808C102.343 158.021 101.839 158.128 101.256 158.128ZM105.942 158V151.455H107.757V158H105.942ZM106.854 150.611C106.584 150.611 106.353 150.521 106.159 150.342C105.969 150.161 105.874 149.943 105.874 149.69C105.874 149.44 105.969 149.226 106.159 149.047C106.353 148.865 106.584 148.774 106.854 148.774C107.124 148.774 107.354 148.865 107.544 149.047C107.737 149.226 107.834 149.44 107.834 149.69C107.834 149.943 107.737 150.161 107.544 150.342C107.354 150.521 107.124 150.611 106.854 150.611ZM112.794 158.128C112.121 158.128 111.542 157.991 111.056 157.719C110.573 157.443 110.201 157.054 109.939 156.551C109.678 156.045 109.547 155.447 109.547 154.757C109.547 154.084 109.678 153.493 109.939 152.984C110.201 152.476 110.569 152.08 111.043 151.795C111.52 151.511 112.08 151.369 112.722 151.369C113.154 151.369 113.556 151.439 113.928 151.578C114.303 151.714 114.63 151.92 114.908 152.196C115.189 152.472 115.408 152.818 115.564 153.236C115.721 153.651 115.799 154.136 115.799 154.693V155.192H110.272V154.067H114.09C114.09 153.805 114.033 153.574 113.919 153.372C113.806 153.17 113.648 153.013 113.446 152.899C113.248 152.783 113.016 152.724 112.752 152.724C112.476 152.724 112.232 152.788 112.019 152.916C111.809 153.041 111.644 153.21 111.525 153.423C111.405 153.634 111.344 153.868 111.341 154.126V155.196C111.341 155.52 111.401 155.8 111.52 156.036C111.643 156.271 111.814 156.453 112.036 156.581C112.258 156.709 112.52 156.773 112.824 156.773C113.026 156.773 113.211 156.744 113.378 156.688C113.546 156.631 113.689 156.545 113.809 156.432C113.928 156.318 114.019 156.179 114.081 156.014L115.76 156.125C115.675 156.528 115.5 156.881 115.236 157.182C114.975 157.48 114.637 157.713 114.222 157.881C113.81 158.045 113.334 158.128 112.794 158.128ZM119.399 154.216V158H117.583V151.455H119.314V152.609H119.39C119.535 152.229 119.778 151.928 120.119 151.706C120.46 151.482 120.873 151.369 121.359 151.369C121.814 151.369 122.21 151.469 122.548 151.668C122.886 151.866 123.149 152.151 123.336 152.52C123.524 152.886 123.618 153.324 123.618 153.832V158H121.802V154.156C121.805 153.756 121.703 153.443 121.495 153.219C121.288 152.991 121.002 152.878 120.639 152.878C120.394 152.878 120.179 152.93 119.991 153.036C119.806 153.141 119.662 153.294 119.556 153.496C119.454 153.695 119.402 153.935 119.399 154.216ZM128.606 158.128C127.935 158.128 127.358 157.986 126.876 157.702C126.395 157.415 126.026 157.017 125.768 156.509C125.512 156 125.384 155.415 125.384 154.753C125.384 154.082 125.513 153.494 125.772 152.989C126.033 152.48 126.404 152.084 126.884 151.8C127.364 151.513 127.935 151.369 128.597 151.369C129.168 151.369 129.668 151.473 130.097 151.68C130.526 151.888 130.866 152.179 131.116 152.554C131.366 152.929 131.503 153.369 131.529 153.875H129.816C129.768 153.548 129.64 153.286 129.432 153.087C129.228 152.885 128.959 152.784 128.627 152.784C128.346 152.784 128.1 152.861 127.89 153.014C127.682 153.165 127.52 153.385 127.404 153.675C127.287 153.964 127.229 154.315 127.229 154.727C127.229 155.145 127.286 155.5 127.4 155.793C127.516 156.085 127.68 156.308 127.89 156.462C128.1 156.615 128.346 156.692 128.627 156.692C128.834 156.692 129.02 156.649 129.185 156.564C129.353 156.479 129.491 156.355 129.599 156.193C129.709 156.028 129.782 155.831 129.816 155.601H131.529C131.501 156.101 131.364 156.541 131.12 156.922C130.878 157.3 130.545 157.595 130.118 157.808C129.692 158.021 129.188 158.128 128.606 158.128ZM136.274 158.128C135.601 158.128 135.021 157.991 134.536 157.719C134.053 157.443 133.68 157.054 133.419 156.551C133.158 156.045 133.027 155.447 133.027 154.757C133.027 154.084 133.158 153.493 133.419 152.984C133.68 152.476 134.048 152.08 134.523 151.795C135 151.511 135.56 151.369 136.202 151.369C136.634 151.369 137.036 151.439 137.408 151.578C137.783 151.714 138.109 151.92 138.388 152.196C138.669 152.472 138.888 152.818 139.044 153.236C139.2 153.651 139.278 154.136 139.278 154.693V155.192H133.751V154.067H137.57C137.57 153.805 137.513 153.574 137.399 153.372C137.286 153.17 137.128 153.013 136.926 152.899C136.727 152.783 136.496 152.724 136.232 152.724C135.956 152.724 135.712 152.788 135.499 152.916C135.288 153.041 135.124 153.21 135.004 153.423C134.885 153.634 134.824 153.868 134.821 154.126V155.196C134.821 155.52 134.881 155.8 135 156.036C135.122 156.271 135.294 156.453 135.516 156.581C135.737 156.709 136 156.773 136.304 156.773C136.506 156.773 136.69 156.744 136.858 156.688C137.026 156.631 137.169 156.545 137.288 156.432C137.408 156.318 137.499 156.179 137.561 156.014L139.24 156.125C139.155 156.528 138.98 156.881 138.716 157.182C138.455 157.48 138.117 157.713 137.702 157.881C137.29 158.045 136.814 158.128 136.274 158.128ZM144.864 148.864L142.052 159.312H140.488L143.3 148.864H144.864ZM146.373 158V149.273H149.867C150.509 149.273 151.045 149.368 151.474 149.558C151.903 149.749 152.225 150.013 152.441 150.351C152.657 150.686 152.765 151.072 152.765 151.51C152.765 151.851 152.697 152.151 152.56 152.409C152.424 152.665 152.237 152.875 151.998 153.04C151.762 153.202 151.492 153.317 151.188 153.385V153.47C151.521 153.484 151.832 153.578 152.122 153.751C152.414 153.925 152.651 154.168 152.833 154.48C153.015 154.79 153.106 155.159 153.106 155.588C153.106 156.051 152.991 156.464 152.761 156.828C152.533 157.189 152.197 157.474 151.751 157.685C151.305 157.895 150.755 158 150.102 158H146.373ZM148.218 156.491H149.722C150.237 156.491 150.612 156.393 150.847 156.197C151.083 155.999 151.201 155.734 151.201 155.405C151.201 155.163 151.143 154.95 151.026 154.766C150.91 154.581 150.744 154.436 150.528 154.331C150.315 154.226 150.06 154.173 149.765 154.173H148.218V156.491ZM148.218 152.925H149.586C149.839 152.925 150.063 152.881 150.259 152.793C150.458 152.702 150.614 152.574 150.728 152.409C150.845 152.244 150.903 152.047 150.903 151.817C150.903 151.501 150.791 151.247 150.566 151.054C150.345 150.861 150.029 150.764 149.62 150.764H148.218V152.925ZM154.872 158V151.455H156.688V158H154.872ZM155.784 150.611C155.515 150.611 155.283 150.521 155.09 150.342C154.899 150.161 154.804 149.943 154.804 149.69C154.804 149.44 154.899 149.226 155.09 149.047C155.283 148.865 155.515 148.774 155.784 148.774C156.054 148.774 156.284 148.865 156.475 149.047C156.668 149.226 156.765 149.44 156.765 149.69C156.765 149.943 156.668 150.161 156.475 150.342C156.284 150.521 156.054 150.611 155.784 150.611ZM161.699 158.128C161.037 158.128 160.465 157.987 159.982 157.706C159.502 157.422 159.131 157.027 158.87 156.521C158.608 156.013 158.478 155.423 158.478 154.753C158.478 154.077 158.608 153.486 158.87 152.98C159.131 152.472 159.502 152.077 159.982 151.795C160.465 151.511 161.037 151.369 161.699 151.369C162.361 151.369 162.932 151.511 163.412 151.795C163.895 152.077 164.268 152.472 164.529 152.98C164.79 153.486 164.921 154.077 164.921 154.753C164.921 155.423 164.79 156.013 164.529 156.521C164.268 157.027 163.895 157.422 163.412 157.706C162.932 157.987 162.361 158.128 161.699 158.128ZM161.708 156.722C162.009 156.722 162.26 156.636 162.462 156.466C162.664 156.293 162.816 156.057 162.918 155.759C163.023 155.46 163.076 155.121 163.076 154.74C163.076 154.359 163.023 154.02 162.918 153.722C162.816 153.423 162.664 153.187 162.462 153.014C162.26 152.841 162.009 152.754 161.708 152.754C161.404 152.754 161.148 152.841 160.941 153.014C160.736 153.187 160.581 153.423 160.476 153.722C160.374 154.02 160.323 154.359 160.323 154.74C160.323 155.121 160.374 155.46 160.476 155.759C160.581 156.057 160.736 156.293 160.941 156.466C161.148 156.636 161.404 156.722 161.708 156.722ZM169.659 158.128C168.988 158.128 168.412 157.986 167.929 157.702C167.449 157.415 167.079 157.017 166.821 156.509C166.565 156 166.437 155.415 166.437 154.753C166.437 154.082 166.566 153.494 166.825 152.989C167.086 152.48 167.457 152.084 167.937 151.8C168.417 151.513 168.988 151.369 169.65 151.369C170.221 151.369 170.721 151.473 171.15 151.68C171.579 151.888 171.919 152.179 172.169 152.554C172.419 152.929 172.557 153.369 172.582 153.875H170.869C170.821 153.548 170.693 153.286 170.485 153.087C170.281 152.885 170.012 152.784 169.68 152.784C169.399 152.784 169.153 152.861 168.943 153.014C168.735 153.165 168.574 153.385 168.457 153.675C168.341 153.964 168.282 154.315 168.282 154.727C168.282 155.145 168.339 155.5 168.453 155.793C168.569 156.085 168.733 156.308 168.943 156.462C169.153 156.615 169.399 156.692 169.68 156.692C169.887 156.692 170.074 156.649 170.238 156.564C170.406 156.479 170.544 156.355 170.652 156.193C170.762 156.028 170.835 155.831 170.869 155.601H172.582C172.554 156.101 172.417 156.541 172.173 156.922C171.932 157.3 171.598 157.595 171.172 157.808C170.745 158.021 170.241 158.128 169.659 158.128ZM176.16 154.216V158H174.344V149.273H176.109V152.609H176.185C176.333 152.223 176.572 151.92 176.901 151.702C177.231 151.48 177.644 151.369 178.141 151.369C178.596 151.369 178.992 151.469 179.33 151.668C179.671 151.864 179.935 152.146 180.123 152.516C180.313 152.882 180.407 153.321 180.404 153.832V158H178.589V154.156C178.592 153.753 178.489 153.439 178.282 153.214C178.077 152.99 177.79 152.878 177.421 152.878C177.174 152.878 176.955 152.93 176.765 153.036C176.577 153.141 176.43 153.294 176.322 153.496C176.217 153.695 176.163 153.935 176.16 154.216ZM185.416 158.128C184.742 158.128 184.163 157.991 183.677 157.719C183.194 157.443 182.822 157.054 182.56 156.551C182.299 156.045 182.168 155.447 182.168 154.757C182.168 154.084 182.299 153.493 182.56 152.984C182.822 152.476 183.19 152.08 183.664 151.795C184.141 151.511 184.701 151.369 185.343 151.369C185.775 151.369 186.177 151.439 186.549 151.578C186.924 151.714 187.251 151.92 187.529 152.196C187.81 152.472 188.029 152.818 188.185 153.236C188.342 153.651 188.42 154.136 188.42 154.693V155.192H182.893V154.067H186.711C186.711 153.805 186.654 153.574 186.541 153.372C186.427 153.17 186.269 153.013 186.068 152.899C185.869 152.783 185.637 152.724 185.373 152.724C185.097 152.724 184.853 152.788 184.64 152.916C184.43 153.041 184.265 153.21 184.146 153.423C184.026 153.634 183.965 153.868 183.962 154.126V155.196C183.962 155.52 184.022 155.8 184.141 156.036C184.264 156.271 184.435 156.453 184.657 156.581C184.879 156.709 185.141 156.773 185.445 156.773C185.647 156.773 185.832 156.744 185.999 156.688C186.167 156.631 186.31 156.545 186.43 156.432C186.549 156.318 186.64 156.179 186.703 156.014L188.381 156.125C188.296 156.528 188.122 156.881 187.857 157.182C187.596 157.48 187.258 157.713 186.843 157.881C186.431 158.045 185.955 158.128 185.416 158.128ZM190.205 158V151.455H191.935V152.609H192.011C192.148 152.226 192.375 151.923 192.693 151.702C193.011 151.48 193.392 151.369 193.835 151.369C194.284 151.369 194.666 151.482 194.981 151.706C195.297 151.928 195.507 152.229 195.612 152.609H195.68C195.814 152.234 196.055 151.935 196.405 151.71C196.757 151.483 197.173 151.369 197.653 151.369C198.264 151.369 198.76 151.564 199.141 151.953C199.524 152.339 199.716 152.888 199.716 153.598V158H197.905V153.956C197.905 153.592 197.808 153.32 197.615 153.138C197.422 152.956 197.18 152.865 196.891 152.865C196.561 152.865 196.304 152.97 196.119 153.18C195.935 153.388 195.842 153.662 195.842 154.003V158H194.082V153.918C194.082 153.597 193.99 153.341 193.805 153.151C193.624 152.96 193.383 152.865 193.085 152.865C192.883 152.865 192.702 152.916 192.54 153.018C192.381 153.118 192.254 153.259 192.16 153.44C192.067 153.619 192.02 153.83 192.02 154.071V158H190.205ZM201.75 158V151.455H203.565V158H201.75ZM202.662 150.611C202.392 150.611 202.16 150.521 201.967 150.342C201.777 150.161 201.682 149.943 201.682 149.69C201.682 149.44 201.777 149.226 201.967 149.047C202.16 148.865 202.392 148.774 202.662 148.774C202.932 148.774 203.162 148.865 203.352 149.047C203.545 149.226 203.642 149.44 203.642 149.69C203.642 149.943 203.545 150.161 203.352 150.342C203.162 150.521 202.932 150.611 202.662 150.611ZM211.065 153.321L209.403 153.423C209.375 153.281 209.314 153.153 209.22 153.04C209.126 152.923 209.003 152.831 208.849 152.763C208.699 152.692 208.519 152.656 208.308 152.656C208.027 152.656 207.79 152.716 207.597 152.835C207.403 152.952 207.307 153.108 207.307 153.304C207.307 153.46 207.369 153.592 207.494 153.7C207.619 153.808 207.834 153.895 208.138 153.96L209.322 154.199C209.959 154.33 210.433 154.54 210.746 154.83C211.058 155.119 211.215 155.5 211.215 155.972C211.215 156.401 211.088 156.777 210.835 157.101C210.585 157.425 210.242 157.678 209.804 157.859C209.369 158.038 208.868 158.128 208.3 158.128C207.433 158.128 206.743 157.947 206.229 157.587C205.717 157.223 205.418 156.729 205.33 156.104L207.115 156.01C207.169 156.274 207.3 156.476 207.507 156.615C207.715 156.751 207.98 156.82 208.304 156.82C208.622 156.82 208.878 156.759 209.071 156.636C209.267 156.511 209.367 156.351 209.369 156.155C209.367 155.99 209.297 155.855 209.161 155.75C209.024 155.642 208.814 155.56 208.53 155.503L207.396 155.277C206.757 155.149 206.281 154.928 205.969 154.612C205.659 154.297 205.504 153.895 205.504 153.406C205.504 152.986 205.618 152.624 205.845 152.32C206.075 152.016 206.398 151.781 206.813 151.616C207.23 151.452 207.719 151.369 208.278 151.369C209.105 151.369 209.756 151.544 210.23 151.893C210.707 152.243 210.986 152.719 211.065 153.321ZM216.439 151.455V152.818H212.497V151.455H216.439ZM213.392 149.886H215.208V155.989C215.208 156.156 215.233 156.287 215.284 156.381C215.335 156.472 215.407 156.536 215.497 156.572C215.591 156.609 215.699 156.628 215.821 156.628C215.907 156.628 215.992 156.621 216.077 156.607C216.162 156.589 216.228 156.577 216.273 156.568L216.558 157.919C216.468 157.947 216.34 157.98 216.175 158.017C216.01 158.057 215.81 158.081 215.574 158.089C215.137 158.107 214.753 158.048 214.424 157.915C214.097 157.781 213.843 157.574 213.661 157.293C213.479 157.011 213.389 156.656 213.392 156.227V149.886ZM218.222 158V151.455H219.982V152.597H220.05C220.169 152.19 220.369 151.884 220.651 151.676C220.932 151.466 221.256 151.361 221.622 151.361C221.713 151.361 221.811 151.366 221.916 151.378C222.021 151.389 222.114 151.405 222.193 151.425V153.036C222.108 153.01 221.99 152.987 221.84 152.967C221.689 152.947 221.551 152.938 221.426 152.938C221.159 152.938 220.921 152.996 220.71 153.112C220.503 153.226 220.338 153.385 220.216 153.589C220.097 153.794 220.037 154.03 220.037 154.297V158H218.222ZM225.052 160.455C224.822 160.455 224.606 160.436 224.404 160.399C224.205 160.365 224.04 160.321 223.91 160.267L224.319 158.912C224.532 158.977 224.724 159.013 224.894 159.018C225.067 159.024 225.217 158.984 225.342 158.899C225.469 158.814 225.573 158.669 225.653 158.464L225.759 158.188L223.411 151.455H225.32L226.675 156.261H226.744L228.111 151.455H230.033L227.489 158.707C227.367 159.06 227.201 159.366 226.991 159.628C226.783 159.892 226.521 160.095 226.202 160.237C225.884 160.382 225.501 160.455 225.052 160.455Z" fill="#54565A"/>
<path d="M32.5317 180C32.438 179.713 32.3144 179.456 32.161 179.229C32.0104 178.999 31.83 178.803 31.6198 178.641C31.4124 178.479 31.1766 178.355 30.9124 178.27C30.6482 178.185 30.3584 178.142 30.0431 178.142C29.526 178.142 29.0559 178.276 28.6326 178.543C28.2093 178.81 27.8726 179.203 27.6226 179.723C27.3726 180.243 27.2476 180.881 27.2476 181.636C27.2476 182.392 27.374 183.03 27.6269 183.55C27.8797 184.07 28.2221 184.463 28.6539 184.73C29.0857 184.997 29.5715 185.131 30.1113 185.131C30.6113 185.131 31.0516 185.024 31.4323 184.811C31.8158 184.595 32.1141 184.291 32.3272 183.899C32.5431 183.504 32.651 183.04 32.651 182.506L32.9749 182.574H30.3499V181.636H33.6738V182.574C33.6738 183.293 33.5203 183.918 33.2135 184.449C32.9096 184.98 32.4891 185.392 31.9522 185.685C31.4181 185.974 30.8044 186.119 30.1113 186.119C29.3385 186.119 28.6596 185.938 28.0743 185.574C27.4919 185.21 27.0374 184.693 26.7107 184.023C26.3868 183.352 26.2249 182.557 26.2249 181.636C26.2249 180.946 26.3172 180.325 26.5019 179.774C26.6894 179.22 26.9536 178.749 27.2945 178.359C27.6354 177.97 28.0388 177.672 28.5047 177.464C28.9706 177.257 29.4834 177.153 30.0431 177.153C30.5033 177.153 30.9323 177.223 31.33 177.362C31.7306 177.499 32.0871 177.693 32.3996 177.946C32.7149 178.196 32.9777 178.496 33.188 178.845C33.3982 179.192 33.5431 179.577 33.6226 180H32.5317ZM35.9474 186V179.455H36.919V180.443H36.9872C37.1065 180.119 37.3224 179.857 37.6349 179.655C37.9474 179.453 38.2997 179.352 38.6917 179.352C38.7656 179.352 38.8579 179.354 38.9687 179.357C39.0795 179.359 39.1633 179.364 39.2201 179.369V180.392C39.186 180.384 39.1079 180.371 38.9858 180.354C38.8664 180.334 38.74 180.324 38.6065 180.324C38.2883 180.324 38.0042 180.391 37.7542 180.524C37.5071 180.655 37.311 180.837 37.1662 181.07C37.0241 181.3 36.9531 181.562 36.9531 181.858V186H35.9474ZM42.9384 186.153C42.5236 186.153 42.1472 186.075 41.8091 185.919C41.4711 185.76 41.2026 185.531 41.0037 185.233C40.8049 184.932 40.7054 184.568 40.7054 184.142C40.7054 183.767 40.7793 183.463 40.927 183.23C41.0748 182.994 41.2722 182.81 41.5194 182.676C41.7665 182.543 42.0392 182.443 42.3375 182.378C42.6387 182.31 42.9412 182.256 43.2452 182.216C43.6429 182.165 43.9654 182.126 44.2125 182.101C44.4625 182.072 44.6444 182.026 44.758 181.96C44.8745 181.895 44.9327 181.781 44.9327 181.619V181.585C44.9327 181.165 44.8176 180.838 44.5875 180.605C44.3603 180.372 44.0151 180.256 43.552 180.256C43.0719 180.256 42.6955 180.361 42.4228 180.571C42.15 180.781 41.9583 181.006 41.8475 181.244L40.8929 180.903C41.0634 180.506 41.2907 180.196 41.5748 179.974C41.8617 179.75 42.1742 179.594 42.5123 179.506C42.8532 179.415 43.1884 179.369 43.5179 179.369C43.7282 179.369 43.9696 179.395 44.2424 179.446C44.5179 179.494 44.7836 179.595 45.0392 179.749C45.2978 179.902 45.5123 180.134 45.6827 180.443C45.8532 180.753 45.9384 181.168 45.9384 181.688V186H44.9327V185.114H44.8816C44.8134 185.256 44.6998 185.408 44.5407 185.57C44.3816 185.732 44.1699 185.869 43.9057 185.983C43.6415 186.097 43.3191 186.153 42.9384 186.153ZM43.0918 185.25C43.4895 185.25 43.8248 185.172 44.0975 185.016C44.373 184.859 44.5804 184.658 44.7196 184.411C44.8617 184.163 44.9327 183.903 44.9327 183.631V182.71C44.8901 182.761 44.7963 182.808 44.6515 182.851C44.5094 182.891 44.3446 182.926 44.1571 182.957C43.9725 182.986 43.7921 183.011 43.6159 183.034C43.4426 183.054 43.302 183.071 43.1941 183.085C42.9327 183.119 42.6884 183.175 42.4611 183.251C42.2367 183.325 42.0549 183.437 41.9157 183.588C41.7793 183.736 41.7111 183.937 41.7111 184.193C41.7111 184.543 41.8404 184.807 42.0989 184.986C42.3603 185.162 42.6912 185.25 43.0918 185.25ZM50.8456 186.136C50.3001 186.136 49.8186 185.999 49.401 185.723C48.9833 185.445 48.6566 185.053 48.4208 184.547C48.185 184.038 48.0672 183.438 48.0672 182.744C48.0672 182.057 48.185 181.46 48.4208 180.955C48.6566 180.449 48.9848 180.058 49.4052 179.783C49.8257 179.507 50.3115 179.369 50.8626 179.369C51.2887 179.369 51.6254 179.44 51.8725 179.582C52.1225 179.722 52.3129 179.881 52.4436 180.06C52.5771 180.236 52.6808 180.381 52.7547 180.494H52.8399V177.273H53.8456V186H52.874V184.994H52.7547C52.6808 185.114 52.5757 185.264 52.4393 185.446C52.3029 185.625 52.1083 185.786 51.8555 185.928C51.6027 186.067 51.266 186.136 50.8456 186.136ZM50.9819 185.233C51.3853 185.233 51.7262 185.128 52.0047 184.918C52.2831 184.705 52.4947 184.411 52.6396 184.036C52.7845 183.658 52.8569 183.222 52.8569 182.727C52.8569 182.239 52.7859 181.811 52.6439 181.445C52.5018 181.075 52.2916 180.788 52.0132 180.584C51.7348 180.376 51.391 180.273 50.9819 180.273C50.5558 180.273 50.2007 180.382 49.9166 180.601C49.6353 180.817 49.4237 181.111 49.2816 181.483C49.1424 181.852 49.0728 182.267 49.0728 182.727C49.0728 183.193 49.1439 183.616 49.2859 183.997C49.4308 184.375 49.6439 184.676 49.9251 184.901C50.2092 185.122 50.5615 185.233 50.9819 185.233ZM59.1714 186.136C58.5407 186.136 57.9967 185.997 57.5393 185.719C57.0848 185.438 56.7339 185.045 56.4868 184.543C56.2424 184.037 56.1203 183.449 56.1203 182.778C56.1203 182.108 56.2424 181.517 56.4868 181.006C56.7339 180.491 57.0777 180.091 57.518 179.804C57.9612 179.514 58.4782 179.369 59.0691 179.369C59.41 179.369 59.7467 179.426 60.0791 179.54C60.4115 179.653 60.714 179.838 60.9868 180.094C61.2595 180.347 61.4768 180.682 61.6387 181.099C61.8007 181.517 61.8816 182.031 61.8816 182.642V183.068H56.8362V182.199H60.8589C60.8589 181.83 60.785 181.5 60.6373 181.21C60.4924 180.92 60.285 180.692 60.0152 180.524C59.7481 180.357 59.4328 180.273 59.0691 180.273C58.6686 180.273 58.322 180.372 58.0294 180.571C57.7396 180.767 57.5166 181.023 57.3603 181.338C57.2041 181.653 57.126 181.991 57.126 182.352V182.932C57.126 183.426 57.2112 183.845 57.3816 184.189C57.5549 184.53 57.795 184.79 58.1018 184.969C58.4086 185.145 58.7652 185.233 59.1714 185.233C59.4356 185.233 59.6743 185.196 59.8873 185.122C60.1032 185.045 60.2893 184.932 60.4456 184.781C60.6018 184.628 60.7225 184.437 60.8078 184.21L61.7794 184.483C61.6771 184.812 61.5052 185.102 61.2637 185.352C61.0223 185.599 60.724 185.793 60.3689 185.932C60.0137 186.068 59.6146 186.136 59.1714 186.136Z" fill="#A6A6A6"/>
<path d="M26.498 207.381V206.124L30.2011 200.273H31.2494V202.062H30.6102L28.1173 206.013V206.081H33.2863V207.381H26.498ZM30.6613 209V206.997L30.6784 206.435V200.273H32.1699V209H30.6613ZM35.9691 209.094C35.7105 209.094 35.489 209.003 35.3043 208.821C35.1196 208.639 35.0287 208.418 35.0316 208.156C35.0287 207.901 35.1196 207.682 35.3043 207.5C35.489 207.318 35.7105 207.227 35.9691 207.227C36.2191 207.227 36.4364 207.318 36.6211 207.5C36.8086 207.682 36.9037 207.901 36.9066 208.156C36.9037 208.33 36.8583 208.487 36.7702 208.629C36.685 208.771 36.5713 208.885 36.4293 208.97C36.2901 209.053 36.1367 209.094 35.9691 209.094ZM42.0108 209.119C41.4426 209.119 40.9341 209.013 40.4853 208.8C40.0364 208.584 39.6799 208.288 39.4157 207.913C39.1543 207.538 39.0151 207.109 38.998 206.626H40.5321C40.5605 206.984 40.7154 207.277 40.9966 207.504C41.2779 207.729 41.6159 207.841 42.0108 207.841C42.3205 207.841 42.5961 207.77 42.8375 207.628C43.079 207.486 43.2694 207.288 43.4086 207.036C43.5478 206.783 43.6159 206.494 43.6131 206.17C43.6159 205.841 43.5463 205.548 43.4043 205.293C43.2623 205.037 43.0676 204.837 42.8205 204.692C42.5733 204.544 42.2892 204.47 41.9682 204.47C41.7069 204.467 41.4498 204.516 41.1969 204.615C40.9441 204.714 40.7438 204.845 40.5961 205.007L39.1685 204.773L39.6245 200.273H44.687V201.594H40.9327L40.6813 203.908H40.7324C40.8944 203.717 41.123 203.56 41.4185 203.435C41.714 203.307 42.0378 203.243 42.3901 203.243C42.9185 203.243 43.3901 203.368 43.8049 203.618C44.2196 203.865 44.5463 204.206 44.785 204.641C45.0236 205.075 45.1429 205.572 45.1429 206.132C45.1429 206.709 45.0094 207.223 44.7424 207.675C44.4782 208.124 44.1103 208.477 43.6387 208.736C43.1699 208.991 42.6273 209.119 42.0108 209.119ZM50.8323 209V200.273H56.4232V201.598H52.4132V203.967H56.0397V205.293H52.4132V209H50.8323ZM58.3953 209V202.455H59.938V209H58.3953ZM59.1709 201.526C58.9266 201.526 58.7164 201.445 58.5402 201.283C58.3641 201.118 58.276 200.92 58.276 200.69C58.276 200.457 58.3641 200.26 58.5402 200.098C58.7164 199.933 58.9266 199.851 59.1709 199.851C59.4181 199.851 59.6283 199.933 59.8016 200.098C59.9777 200.26 60.0658 200.457 60.0658 200.69C60.0658 200.92 59.9777 201.118 59.8016 201.283C59.6283 201.445 59.4181 201.526 59.1709 201.526ZM62.1243 209V202.455H63.62V203.545H63.6882C63.8075 203.168 64.012 202.876 64.3018 202.672C64.5944 202.464 64.9282 202.361 65.3032 202.361C65.3885 202.361 65.4836 202.365 65.5887 202.374C65.6967 202.379 65.7862 202.389 65.8572 202.403V203.822C65.7919 203.8 65.6882 203.78 65.5461 203.763C65.4069 203.743 65.272 203.733 65.1413 203.733C64.86 203.733 64.6072 203.794 64.3828 203.916C64.1612 204.036 63.9865 204.202 63.8586 204.415C63.7308 204.628 63.6669 204.874 63.6669 205.152V209H62.1243ZM72.6554 204.185L71.2491 204.338C71.2093 204.196 71.1397 204.062 71.0403 203.938C70.9437 203.812 70.813 203.712 70.6483 203.635C70.4835 203.558 70.2818 203.52 70.0431 203.52C69.7221 203.52 69.4522 203.589 69.2335 203.729C69.0176 203.868 68.911 204.048 68.9139 204.27C68.911 204.46 68.9806 204.615 69.1227 204.734C69.2676 204.854 69.5062 204.952 69.8386 205.028L70.9551 205.267C71.5744 205.401 72.0346 205.612 72.3358 205.902C72.6397 206.192 72.7931 206.571 72.796 207.04C72.7931 207.452 72.6724 207.815 72.4338 208.131C72.198 208.443 71.8699 208.687 71.4494 208.864C71.0289 209.04 70.546 209.128 70.0005 209.128C69.1994 209.128 68.5545 208.96 68.0659 208.625C67.5772 208.287 67.286 207.817 67.1923 207.214L68.6966 207.07C68.7647 207.365 68.9096 207.588 69.1312 207.739C69.3528 207.889 69.6412 207.964 69.9963 207.964C70.3627 207.964 70.6568 207.889 70.8784 207.739C71.1028 207.588 71.215 207.402 71.215 207.18C71.215 206.993 71.1426 206.838 70.9977 206.716C70.8556 206.594 70.6341 206.5 70.3329 206.435L69.2164 206.2C68.5886 206.07 68.1241 205.849 67.823 205.54C67.5218 205.227 67.3727 204.832 67.3755 204.355C67.3727 203.952 67.4821 203.602 67.7037 203.307C67.9281 203.009 68.2392 202.778 68.6369 202.616C69.0375 202.452 69.4991 202.369 70.0218 202.369C70.7889 202.369 71.3926 202.533 71.8329 202.859C72.2761 203.186 72.5502 203.628 72.6554 204.185ZM77.9365 202.455V203.648H74.1737V202.455H77.9365ZM75.1027 200.886H76.6453V207.031C76.6453 207.239 76.6765 207.398 76.739 207.509C76.8044 207.616 76.8896 207.69 76.9947 207.73C77.0998 207.77 77.2163 207.79 77.3441 207.79C77.4407 207.79 77.5288 207.783 77.6083 207.768C77.6907 207.754 77.7532 207.741 77.7958 207.73L78.0558 208.936C77.9734 208.964 77.8555 208.996 77.7021 209.03C77.5515 209.064 77.3669 209.084 77.1481 209.089C76.7618 209.101 76.4137 209.043 76.1041 208.915C75.7944 208.784 75.5487 208.582 75.3669 208.31C75.1879 208.037 75.0998 207.696 75.1027 207.287V200.886ZM90.9415 203.217H89.3478C89.3023 202.956 89.2185 202.724 89.0963 202.523C88.9742 202.318 88.8222 202.145 88.6404 202.003C88.4586 201.861 88.2512 201.754 88.0182 201.683C87.7881 201.609 87.5395 201.572 87.2725 201.572C86.798 201.572 86.3776 201.692 86.0111 201.93C85.6446 202.166 85.3577 202.513 85.1503 202.97C84.9429 203.425 84.8392 203.98 84.8392 204.636C84.8392 205.304 84.9429 205.866 85.1503 206.324C85.3605 206.778 85.6475 207.122 86.0111 207.355C86.3776 207.585 86.7966 207.7 87.2682 207.7C87.5296 207.7 87.7739 207.666 88.0012 207.598C88.2313 207.527 88.4373 207.423 88.6191 207.287C88.8037 207.151 88.9586 206.983 89.0836 206.784C89.2114 206.585 89.2995 206.358 89.3478 206.102L90.9415 206.111C90.8819 206.526 90.7526 206.915 90.5537 207.278C90.3577 207.642 90.1006 207.963 89.7824 208.241C89.4642 208.517 89.0921 208.733 88.6659 208.889C88.2398 209.043 87.7668 209.119 87.2469 209.119C86.4799 209.119 85.7952 208.942 85.1929 208.587C84.5907 208.232 84.1162 207.719 83.7696 207.048C83.423 206.378 83.2498 205.574 83.2498 204.636C83.2498 203.696 83.4245 202.892 83.7739 202.224C84.1233 201.554 84.5992 201.041 85.2015 200.686C85.8037 200.331 86.4855 200.153 87.2469 200.153C87.7327 200.153 88.1844 200.222 88.602 200.358C89.0196 200.494 89.3918 200.695 89.7185 200.959C90.0452 201.22 90.3137 201.541 90.5239 201.922C90.737 202.3 90.8762 202.732 90.9415 203.217ZM94.4637 200.273V209H92.9211V200.273H94.4637ZM98.5336 209.132C98.1188 209.132 97.7452 209.058 97.4128 208.911C97.0833 208.76 96.8219 208.538 96.6287 208.246C96.4384 207.953 96.3432 207.592 96.3432 207.163C96.3432 206.794 96.4114 206.489 96.5478 206.247C96.6841 206.006 96.8702 205.812 97.106 205.668C97.3418 205.523 97.6074 205.413 97.9029 205.339C98.2012 205.263 98.5094 205.207 98.8276 205.173C99.2111 205.134 99.5222 205.098 99.7608 205.067C99.9995 205.033 100.173 204.982 100.281 204.913C100.392 204.842 100.447 204.733 100.447 204.585V204.56C100.447 204.239 100.352 203.99 100.161 203.814C99.9711 203.638 99.6969 203.55 99.339 203.55C98.9611 203.55 98.6614 203.632 98.4398 203.797C98.2211 203.962 98.0733 204.156 97.9966 204.381L96.5563 204.176C96.6699 203.778 96.8574 203.446 97.1188 203.179C97.3801 202.909 97.6998 202.707 98.0776 202.574C98.4554 202.438 98.873 202.369 99.3304 202.369C99.6458 202.369 99.9597 202.406 100.272 202.48C100.585 202.554 100.87 202.676 101.129 202.847C101.387 203.014 101.595 203.243 101.751 203.533C101.91 203.822 101.99 204.185 101.99 204.619V209H100.507V208.101H100.455C100.362 208.283 100.23 208.453 100.059 208.612C99.8915 208.768 99.6799 208.895 99.4242 208.991C99.1713 209.085 98.8745 209.132 98.5336 209.132ZM98.9341 207.999C99.2438 207.999 99.5123 207.937 99.7395 207.815C99.9668 207.69 100.142 207.526 100.264 207.321C100.389 207.116 100.451 206.893 100.451 206.652V205.881C100.403 205.92 100.32 205.957 100.204 205.991C100.09 206.026 99.9625 206.055 99.8205 206.081C99.6784 206.107 99.5378 206.129 99.3986 206.149C99.2594 206.169 99.1387 206.186 99.0364 206.2C98.8063 206.232 98.6003 206.283 98.4185 206.354C98.2367 206.425 98.0932 206.524 97.9881 206.652C97.883 206.777 97.8304 206.939 97.8304 207.138C97.8304 207.422 97.9341 207.636 98.1415 207.781C98.3489 207.926 98.6131 207.999 98.9341 207.999ZM109.314 204.185L107.908 204.338C107.868 204.196 107.798 204.062 107.699 203.938C107.602 203.812 107.472 203.712 107.307 203.635C107.142 203.558 106.94 203.52 106.702 203.52C106.381 203.52 106.111 203.589 105.892 203.729C105.676 203.868 105.57 204.048 105.572 204.27C105.57 204.46 105.639 204.615 105.781 204.734C105.926 204.854 106.165 204.952 106.497 205.028L107.614 205.267C108.233 205.401 108.693 205.612 108.994 205.902C109.298 206.192 109.452 206.571 109.455 207.04C109.452 207.452 109.331 207.815 109.092 208.131C108.857 208.443 108.528 208.687 108.108 208.864C107.688 209.04 107.205 209.128 106.659 209.128C105.858 209.128 105.213 208.96 104.724 208.625C104.236 208.287 103.945 207.817 103.851 207.214L105.355 207.07C105.423 207.365 105.568 207.588 105.79 207.739C106.011 207.889 106.3 207.964 106.655 207.964C107.021 207.964 107.315 207.889 107.537 207.739C107.761 207.588 107.874 207.402 107.874 207.18C107.874 206.993 107.801 206.838 107.656 206.716C107.514 206.594 107.293 206.5 106.992 206.435L105.875 206.2C105.247 206.07 104.783 205.849 104.482 205.54C104.18 205.227 104.031 204.832 104.034 204.355C104.031 203.952 104.141 203.602 104.362 203.307C104.587 203.009 104.898 202.778 105.295 202.616C105.696 202.452 106.158 202.369 106.68 202.369C107.447 202.369 108.051 202.533 108.492 202.859C108.935 203.186 109.209 203.628 109.314 204.185ZM116.5 204.185L115.094 204.338C115.054 204.196 114.984 204.062 114.885 203.938C114.788 203.812 114.658 203.712 114.493 203.635C114.328 203.558 114.126 203.52 113.888 203.52C113.567 203.52 113.297 203.589 113.078 203.729C112.862 203.868 112.756 204.048 112.758 204.27C112.756 204.46 112.825 204.615 112.967 204.734C113.112 204.854 113.351 204.952 113.683 205.028L114.8 205.267C115.419 205.401 115.879 205.612 116.18 205.902C116.484 206.192 116.638 206.571 116.641 207.04C116.638 207.452 116.517 207.815 116.278 208.131C116.043 208.443 115.714 208.687 115.294 208.864C114.873 209.04 114.391 209.128 113.845 209.128C113.044 209.128 112.399 208.96 111.91 208.625C111.422 208.287 111.131 207.817 111.037 207.214L112.541 207.07C112.609 207.365 112.754 207.588 112.976 207.739C113.197 207.889 113.486 207.964 113.841 207.964C114.207 207.964 114.501 207.889 114.723 207.739C114.947 207.588 115.06 207.402 115.06 207.18C115.06 206.993 114.987 206.838 114.842 206.716C114.7 206.594 114.479 206.5 114.177 206.435L113.061 206.2C112.433 206.07 111.969 205.849 111.668 205.54C111.366 205.227 111.217 204.832 111.22 204.355C111.217 203.952 111.327 203.602 111.548 203.307C111.773 203.009 112.084 202.778 112.481 202.616C112.882 202.452 113.344 202.369 113.866 202.369C114.633 202.369 115.237 202.533 115.677 202.859C116.121 203.186 116.395 203.628 116.5 204.185Z" fill="#54565A"/>
</g>
<defs>
<filter id="filter0_d_749_19833" x="0" y="0" width="284" height="234" filterUnits="userSpaceOnUse" color-interpolation-filters="sRGB">
<feFlood flood-opacity="0" result="BackgroundImageFix"/>
<feColorMatrix in="SourceAlpha" type="matrix" values="0 0 0 0 0 0 0 0 0 0 0 0 0 0 0 0 0 0 127 0" result="hardAlpha"/>
<feOffset dx="4" dy="4"/>
<feGaussianBlur stdDeviation="2"/>
<feComposite in2="hardAlpha" operator="out"/>
<feColorMatrix type="matrix" values="0 0 0 0 0 0 0 0 0 0 0 0 0 0 0 0 0 0 0.02 0"/>
<feBlend mode="normal" in2="BackgroundImageFix" result="effect1_dropShadow_749_19833"/>
<feBlend mode="normal" in="SourceGraphic" in2="effect1_dropShadow_749_19833" result="shape"/>
</filter>
</defs>
</svg>
