<svg width="12" height="12" viewBox="0 0 12 12" fill="none" xmlns="http://www.w3.org/2000/svg">
<path d="M5.02147 4.93363C5.29176 4.93363 5.51371 5.14057 5.53754 5.40465L5.53966 5.45182V8.74091C5.53966 9.02709 5.30766 9.25909 5.02147 9.25909C4.75118 9.25909 4.52923 9.05216 4.5054 8.78807L4.50328 8.74091V5.45182C4.50328 5.16563 4.73528 4.93363 5.02147 4.93363Z" fill="#505967"/>
<path d="M7.73027 5.40465C7.70644 5.14057 7.48448 4.93363 7.2142 4.93363C6.92801 4.93363 6.69601 5.16563 6.69601 5.45182V8.74091L6.69813 8.78807C6.72196 9.05216 6.94391 9.25909 7.2142 9.25909C7.50038 9.25909 7.73238 9.02709 7.73238 8.74091V5.45182L7.73027 5.40465Z" fill="#505967"/>
<path fill-rule="evenodd" clip-rule="evenodd" d="M7.2142 0C8.08242 0 8.79058 0.685314 8.82726 1.54451L8.82875 1.61455V2.19273H11.0515C11.3377 2.19273 11.5697 2.42473 11.5697 2.71091C11.5697 2.9812 11.3627 3.20315 11.0986 3.22698L11.0515 3.2291H10.4733V10.3855C10.4733 11.2537 9.78798 11.9618 8.92878 11.9985L8.85874 12H3.37693C2.5087 12 1.80054 11.3147 1.76387 10.4555L1.76238 10.3855V3.2291H1.1842C0.898016 3.2291 0.666016 2.9971 0.666016 2.71091C0.666016 2.44062 0.872954 2.21867 1.13704 2.19484L1.1842 2.19273H3.40692V1.61455C3.40692 0.746324 4.09224 0.0381621 4.95144 0.00149169L5.02147 0H7.2142ZM2.79875 3.2291V10.3855C2.79875 10.6888 3.03237 10.9376 3.32951 10.9617L3.37693 10.9636H8.85874C9.16209 10.9636 9.41088 10.73 9.435 10.4329L9.43692 10.3855V3.2291H2.79875ZM7.79237 2.19273H4.4433V1.61455L4.44521 1.56713C4.46933 1.26999 4.71812 1.03637 5.02147 1.03637H7.2142L7.26162 1.03829C7.55875 1.06241 7.79237 1.3112 7.79237 1.61455V2.19273Z" fill="#505967"/>
</svg>
