<svg width="158" height="158" viewBox="0 0 158 158" fill="none" xmlns="http://www.w3.org/2000/svg">
<g clip-path="url(#clip0_819_60313)">
<rect x="4" y="4" width="150" height="150" rx="75" fill="#EAF1FC"/>
<path d="M79.0013 62.75C96.9506 62.75 111.501 48.1993 111.501 30.25C111.501 12.3007 96.9506 -2.25 79.0013 -2.25C61.0521 -2.25 46.5013 12.3007 46.5013 30.25C46.5013 48.1993 61.0521 62.75 79.0013 62.75Z" fill="#F97316"/>
<path d="M3.16797 160.25C3.16797 118.368 37.1197 84.4167 79.0013 84.4167C120.883 84.4167 154.835 118.368 154.835 160.25H3.16797Z" fill="#F97316"/>
</g>
<rect x="2" y="2" width="154" height="154" rx="77" stroke="white" stroke-width="4"/>
<path d="M131.015 150C141.517 150 150.03 141.493 150.03 131C150.03 120.507 141.517 112 131.015 112C120.513 112 112 120.507 112 131C112 141.493 120.513 150 131.015 150Z" fill="#F4F4F4" stroke="#F97316" stroke-width="1.5"/>
<path d="M131.976 139.662H127.16C124.5 139.662 122.344 137.507 122.344 134.85V127.15C122.344 124.493 124.5 122.338 127.16 122.338H134.866C137.525 122.338 139.682 124.493 139.682 127.15V131.962" stroke="#F97316" stroke-width="1.5" stroke-linecap="round" stroke-linejoin="round"/>
<path d="M133.471 128.55C134.824 129.904 134.824 132.097 133.471 133.45C132.116 134.802 129.921 134.802 128.566 133.45C127.212 132.097 127.212 129.904 128.566 128.55C129.216 127.9 130.099 127.535 131.018 127.535C131.938 127.535 132.821 127.9 133.471 128.55Z" stroke="#F97316" stroke-width="1.5" stroke-linecap="round" stroke-linejoin="round"/>
<path d="M135.828 138.213H140.644" stroke="#F97316" stroke-width="1.5" stroke-linecap="round" stroke-linejoin="round"/>
<path d="M138.242 140.619V135.807" stroke="#F97316" stroke-width="1.5" stroke-linecap="round" stroke-linejoin="round"/>
<defs>
<clipPath id="clip0_819_60313">
<rect x="4" y="4" width="150" height="150" rx="75" fill="white"/>
</clipPath>
</defs>
</svg>
