<svg width="284" height="234" viewBox="0 0 284 234" fill="none" xmlns="http://www.w3.org/2000/svg">
<g filter="url(#filter0_d_760_19819)">
<rect width="276" height="226" fill="white"/>
<path d="M32.1571 37V25.3636H36.5207C37.4147 25.3636 38.1647 25.5303 38.7707 25.8636C39.3806 26.197 39.8408 26.6553 40.1514 27.2386C40.4658 27.8182 40.623 28.4773 40.623 29.2159C40.623 29.9621 40.4658 30.625 40.1514 31.2045C39.837 31.7841 39.373 32.2405 38.7594 32.5739C38.1457 32.9034 37.3901 33.0682 36.4923 33.0682H33.6003V31.3352H36.2082C36.731 31.3352 37.159 31.2443 37.4923 31.0625C37.8257 30.8807 38.0719 30.6307 38.231 30.3125C38.3938 29.9943 38.4753 29.6288 38.4753 29.2159C38.4753 28.803 38.3938 28.4394 38.231 28.125C38.0719 27.8106 37.8238 27.5663 37.4866 27.392C37.1533 27.214 36.7234 27.125 36.1969 27.125H34.2651V37H32.1571ZM46.9017 37.1705C46.0267 37.1705 45.271 36.9886 44.6347 36.625C44.0021 36.2576 43.5153 35.7386 43.1744 35.0682C42.8335 34.3939 42.6631 33.6004 42.6631 32.6875C42.6631 31.7898 42.8335 31.0019 43.1744 30.3239C43.5191 29.642 44.0002 29.1117 44.6176 28.733C45.235 28.3504 45.9604 28.1591 46.7938 28.1591C47.3316 28.1591 47.8392 28.2462 48.3165 28.4205C48.7975 28.5909 49.2218 28.8561 49.5892 29.2159C49.9604 29.5758 50.2521 30.0341 50.4642 30.5909C50.6763 31.1439 50.7824 31.803 50.7824 32.5682V33.1989H43.629V31.8125H48.8108C48.807 31.4186 48.7218 31.0682 48.5551 30.7614C48.3884 30.4508 48.1555 30.2064 47.8563 30.0284C47.5608 29.8504 47.2161 29.7614 46.8222 29.7614C46.4017 29.7614 46.0324 29.8636 45.7142 30.0682C45.396 30.2689 45.1479 30.5341 44.9699 30.8636C44.7956 31.1894 44.7066 31.5473 44.7028 31.9375V33.1477C44.7028 33.6553 44.7956 34.0909 44.9813 34.4545C45.1669 34.8144 45.4263 35.0909 45.7597 35.2841C46.093 35.4735 46.4831 35.5682 46.9301 35.5682C47.2294 35.5682 47.5002 35.5265 47.7426 35.4432C47.985 35.3561 48.1953 35.2292 48.3733 35.0625C48.5513 34.8958 48.6858 34.6894 48.7767 34.4432L50.6972 34.6591C50.5759 35.1667 50.3449 35.6098 50.004 35.9886C49.6669 36.3636 49.235 36.6553 48.7085 36.8636C48.182 37.0682 47.5797 37.1705 46.9017 37.1705ZM53.3224 37V28.2727H55.3168V29.7273H55.4077C55.5668 29.2235 55.8395 28.8352 56.2259 28.5625C56.616 28.286 57.0611 28.1477 57.5611 28.1477C57.6747 28.1477 57.8016 28.1534 57.9418 28.1648C58.0857 28.1723 58.205 28.1856 58.2997 28.2045V30.0966C58.2126 30.0663 58.0743 30.0398 57.8849 30.017C57.6993 29.9905 57.5194 29.9773 57.3452 29.9773C56.9702 29.9773 56.6331 30.0587 56.3338 30.2216C56.0384 30.3807 55.8054 30.6023 55.6349 30.8864C55.4645 31.1705 55.3793 31.4981 55.3793 31.8693V37H53.3224ZM67.3639 30.5795L65.4889 30.7841C65.4359 30.5947 65.3431 30.4167 65.2105 30.25C65.0817 30.0833 64.9075 29.9489 64.6878 29.8466C64.4681 29.7443 64.1991 29.6932 63.881 29.6932C63.4529 29.6932 63.0931 29.786 62.8014 29.9716C62.5135 30.1572 62.3715 30.3977 62.3753 30.6932C62.3715 30.947 62.4643 31.1534 62.6537 31.3125C62.8469 31.4716 63.1651 31.6023 63.6082 31.7045L65.0969 32.0227C65.9226 32.2008 66.5363 32.483 66.9378 32.8693C67.3431 33.2557 67.5476 33.7614 67.5514 34.3864C67.5476 34.9356 67.3866 35.4205 67.0685 35.8409C66.7541 36.2576 66.3166 36.5833 65.756 36.8182C65.1954 37.053 64.5514 37.1705 63.8241 37.1705C62.756 37.1705 61.8961 36.947 61.2446 36.5C60.5931 36.0492 60.2048 35.4223 60.0798 34.6193L62.0855 34.4261C62.1764 34.8201 62.3696 35.1174 62.6651 35.3182C62.9605 35.5189 63.345 35.6193 63.8185 35.6193C64.3071 35.6193 64.6991 35.5189 64.9946 35.3182C65.2938 35.1174 65.4435 34.8693 65.4435 34.5739C65.4435 34.3239 65.3469 34.1174 65.1537 33.9545C64.9643 33.7917 64.6688 33.6667 64.2673 33.5795L62.7787 33.267C61.9416 33.0928 61.3223 32.7992 60.9207 32.3864C60.5192 31.9697 60.3204 31.4432 60.3241 30.8068C60.3204 30.2689 60.4662 29.803 60.7616 29.4091C61.0609 29.0114 61.4757 28.7045 62.006 28.4886C62.5401 28.2689 63.1556 28.1591 63.8526 28.1591C64.8753 28.1591 65.6802 28.3769 66.2673 28.8125C66.8582 29.2481 67.2238 29.8371 67.3639 30.5795ZM73.8543 37.1705C73.002 37.1705 72.2634 36.983 71.6384 36.608C71.0134 36.233 70.5285 35.7083 70.1838 35.0341C69.8429 34.3598 69.6724 33.572 69.6724 32.6705C69.6724 31.7689 69.8429 30.9792 70.1838 30.3011C70.5285 29.6231 71.0134 29.0966 71.6384 28.7216C72.2634 28.3466 73.002 28.1591 73.8543 28.1591C74.7065 28.1591 75.4452 28.3466 76.0702 28.7216C76.6952 29.0966 77.1781 29.6231 77.519 30.3011C77.8637 30.9792 78.0361 31.7689 78.0361 32.6705C78.0361 33.572 77.8637 34.3598 77.519 35.0341C77.1781 35.7083 76.6952 36.233 76.0702 36.608C75.4452 36.983 74.7065 37.1705 73.8543 37.1705ZM73.8656 35.5227C74.3277 35.5227 74.7141 35.3958 75.0247 35.142C75.3353 34.8845 75.5664 34.5398 75.7179 34.108C75.8732 33.6761 75.9509 33.1951 75.9509 32.6648C75.9509 32.1307 75.8732 31.6477 75.7179 31.2159C75.5664 30.7803 75.3353 30.4337 75.0247 30.1761C74.7141 29.9186 74.3277 29.7898 73.8656 29.7898C73.3921 29.7898 72.9982 29.9186 72.6838 30.1761C72.3732 30.4337 72.1402 30.7803 71.9849 31.2159C71.8334 31.6477 71.7577 32.1307 71.7577 32.6648C71.7577 33.1951 71.8334 33.6761 71.9849 34.108C72.1402 34.5398 72.3732 34.8845 72.6838 35.142C72.9982 35.3958 73.3921 35.5227 73.8656 35.5227ZM82.6386 31.8864V37H80.5818V28.2727H82.5477V29.7557H82.65C82.8508 29.267 83.1708 28.8788 83.6102 28.5909C84.0534 28.303 84.6008 28.1591 85.2523 28.1591C85.8545 28.1591 86.3792 28.2879 86.8261 28.5455C87.2769 28.803 87.6254 29.1761 87.8716 29.6648C88.1216 30.1534 88.2447 30.7462 88.2409 31.4432V37H86.1841V31.7614C86.1841 31.178 86.0326 30.7216 85.7295 30.392C85.4303 30.0625 85.0155 29.8977 84.4852 29.8977C84.1254 29.8977 83.8053 29.9773 83.525 30.1364C83.2485 30.2917 83.0307 30.517 82.8716 30.8125C82.7163 31.108 82.6386 31.4659 82.6386 31.8864ZM93.6432 37.1761C93.0902 37.1761 92.592 37.0777 92.1489 36.8807C91.7095 36.6799 91.361 36.3845 91.1034 35.9943C90.8496 35.6042 90.7227 35.1231 90.7227 34.5511C90.7227 34.0587 90.8136 33.6515 90.9955 33.3295C91.1773 33.0076 91.4254 32.75 91.7398 32.5568C92.0542 32.3636 92.4083 32.2178 92.8023 32.1193C93.2 32.017 93.611 31.9432 94.0352 31.8977C94.5466 31.8447 94.9614 31.7973 95.2795 31.7557C95.5977 31.7102 95.8288 31.642 95.9727 31.5511C96.1205 31.4564 96.1943 31.3106 96.1943 31.1136V31.0795C96.1943 30.6515 96.0674 30.3201 95.8136 30.0852C95.5598 29.8504 95.1943 29.733 94.717 29.733C94.2133 29.733 93.8136 29.8428 93.5182 30.0625C93.2265 30.2822 93.0295 30.5417 92.9273 30.8409L91.0068 30.5682C91.1583 30.0379 91.4083 29.5947 91.7568 29.2386C92.1053 28.8788 92.5314 28.6098 93.0352 28.4318C93.539 28.25 94.0958 28.1591 94.7057 28.1591C95.1261 28.1591 95.5447 28.2083 95.9614 28.3068C96.378 28.4053 96.7587 28.5682 97.1034 28.7955C97.4481 29.0189 97.7246 29.3239 97.933 29.7102C98.1451 30.0966 98.2511 30.5795 98.2511 31.1591V37H96.2739V35.8011H96.2057C96.0807 36.0436 95.9045 36.2708 95.6773 36.483C95.4538 36.6913 95.1716 36.8598 94.8307 36.9886C94.4936 37.1136 94.0977 37.1761 93.6432 37.1761ZM94.1773 35.6648C94.5902 35.6648 94.9481 35.5833 95.2511 35.4205C95.5542 35.2538 95.7871 35.0341 95.95 34.7614C96.1167 34.4886 96.2 34.1913 96.2 33.8693V32.8409C96.1356 32.8939 96.0258 32.9432 95.8705 32.9886C95.7189 33.0341 95.5485 33.0739 95.3591 33.108C95.1697 33.142 94.9822 33.1723 94.7966 33.1989C94.611 33.2254 94.45 33.2481 94.3136 33.267C94.0068 33.3087 93.7322 33.3769 93.4898 33.4716C93.2473 33.5663 93.0561 33.6989 92.9159 33.8693C92.7758 34.036 92.7057 34.2519 92.7057 34.517C92.7057 34.8958 92.8439 35.1818 93.1205 35.375C93.397 35.5682 93.7492 35.6648 94.1773 35.6648ZM103.176 25.3636V37H101.119V25.3636H103.176ZM117.828 25.3636V37H115.72V25.3636H117.828ZM122.876 31.8864V37H120.819V28.2727H122.785V29.7557H122.888C123.088 29.267 123.408 28.8788 123.848 28.5909C124.291 28.303 124.838 28.1591 125.49 28.1591C126.092 28.1591 126.617 28.2879 127.064 28.5455C127.514 28.803 127.863 29.1761 128.109 29.6648C128.359 30.1534 128.482 30.7462 128.478 31.4432V37H126.422V31.7614C126.422 31.178 126.27 30.7216 125.967 30.392C125.668 30.0625 125.253 29.8977 124.723 29.8977C124.363 29.8977 124.043 29.9773 123.763 30.1364C123.486 30.2917 123.268 30.517 123.109 30.8125C122.954 31.108 122.876 31.4659 122.876 31.8864ZM135.79 28.2727V29.8636H130.631V28.2727H135.79ZM131.92 37V27.4489C131.92 26.8617 132.042 26.3731 132.284 25.983C132.53 25.5928 132.86 25.3011 133.273 25.108C133.686 24.9148 134.144 24.8182 134.648 24.8182C135.004 24.8182 135.32 24.8466 135.597 24.9034C135.873 24.9602 136.078 25.0114 136.21 25.0568L135.801 26.6477C135.714 26.6212 135.604 26.5947 135.472 26.5682C135.339 26.5379 135.191 26.5227 135.028 26.5227C134.646 26.5227 134.375 26.6155 134.216 26.8011C134.061 26.983 133.983 27.2443 133.983 27.5852V37H131.92ZM141.679 37.1705C140.827 37.1705 140.088 36.983 139.463 36.608C138.838 36.233 138.354 35.7083 138.009 35.0341C137.668 34.3598 137.497 33.572 137.497 32.6705C137.497 31.7689 137.668 30.9792 138.009 30.3011C138.354 29.6231 138.838 29.0966 139.463 28.7216C140.088 28.3466 140.827 28.1591 141.679 28.1591C142.532 28.1591 143.27 28.3466 143.895 28.7216C144.52 29.0966 145.003 29.6231 145.344 30.3011C145.689 30.9792 145.861 31.7689 145.861 32.6705C145.861 33.572 145.689 34.3598 145.344 35.0341C145.003 35.7083 144.52 36.233 143.895 36.608C143.27 36.983 142.532 37.1705 141.679 37.1705ZM141.691 35.5227C142.153 35.5227 142.539 35.3958 142.85 35.142C143.16 34.8845 143.391 34.5398 143.543 34.108C143.698 33.6761 143.776 33.1951 143.776 32.6648C143.776 32.1307 143.698 31.6477 143.543 31.2159C143.391 30.7803 143.16 30.4337 142.85 30.1761C142.539 29.9186 142.153 29.7898 141.691 29.7898C141.217 29.7898 140.823 29.9186 140.509 30.1761C140.198 30.4337 139.965 30.7803 139.81 31.2159C139.658 31.6477 139.583 32.1307 139.583 32.6648C139.583 33.1951 139.658 33.6761 139.81 34.108C139.965 34.5398 140.198 34.8845 140.509 35.142C140.823 35.3958 141.217 35.5227 141.691 35.5227ZM149.674 37.125C149.329 37.125 149.034 37.0038 148.787 36.7614C148.541 36.5189 148.42 36.2235 148.424 35.875C148.42 35.5341 148.541 35.2424 148.787 35C149.034 34.7576 149.329 34.6364 149.674 34.6364C150.007 34.6364 150.297 34.7576 150.543 35C150.793 35.2424 150.92 35.5341 150.924 35.875C150.92 36.1061 150.859 36.3163 150.742 36.5057C150.628 36.6951 150.477 36.8466 150.287 36.9602C150.102 37.0701 149.897 37.125 149.674 37.125Z" fill="#54565A"/>
<path d="M40.9718 75.2727V84H39.9491L35.1934 77.1477H35.1082V84H34.0513V75.2727H35.0741L39.8468 82.142H39.932V75.2727H40.9718ZM45.4763 84.1534C45.0615 84.1534 44.6851 84.0753 44.347 83.919C44.0089 83.7599 43.7405 83.5312 43.5416 83.233C43.3428 82.9318 43.2433 82.5682 43.2433 82.142C43.2433 81.767 43.3172 81.4631 43.4649 81.2301C43.6126 80.9943 43.8101 80.8097 44.0572 80.6761C44.3044 80.5426 44.5771 80.4432 44.8754 80.3778C45.1766 80.3097 45.4791 80.2557 45.7831 80.2159C46.1808 80.1648 46.5033 80.1264 46.7504 80.1009C47.0004 80.0724 47.1822 80.0256 47.2959 79.9602C47.4124 79.8949 47.4706 79.7812 47.4706 79.6193V79.5852C47.4706 79.1648 47.3555 78.8381 47.1254 78.6051C46.8982 78.3722 46.553 78.2557 46.0899 78.2557C45.6098 78.2557 45.2334 78.3608 44.9607 78.571C44.6879 78.7812 44.4962 79.0057 44.3854 79.2443L43.4308 78.9034C43.6013 78.5057 43.8286 78.196 44.1126 77.9744C44.3996 77.75 44.7121 77.5937 45.0501 77.5057C45.3911 77.4148 45.7263 77.3693 46.0558 77.3693C46.2661 77.3693 46.5075 77.3949 46.7803 77.446C47.0558 77.4943 47.3214 77.5952 47.5771 77.7486C47.8357 77.902 48.0501 78.1335 48.2206 78.4432C48.3911 78.7528 48.4763 79.1676 48.4763 79.6875V84H47.4706V83.1136H47.4195C47.3513 83.2557 47.2376 83.4077 47.0786 83.5696C46.9195 83.7315 46.7078 83.8693 46.4436 83.983C46.1794 84.0966 45.857 84.1534 45.4763 84.1534ZM45.6297 83.25C46.0274 83.25 46.3626 83.1719 46.6354 83.0156C46.9109 82.8594 47.1183 82.6577 47.2575 82.4105C47.3996 82.1634 47.4706 81.9034 47.4706 81.6307V80.7102C47.428 80.7614 47.3342 80.8082 47.1893 80.8509C47.0473 80.8906 46.8825 80.9261 46.695 80.9574C46.5104 80.9858 46.33 81.0114 46.1538 81.0341C45.9805 81.054 45.8399 81.071 45.732 81.0852C45.4706 81.1193 45.2263 81.1747 44.999 81.2514C44.7746 81.3253 44.5928 81.4375 44.4536 81.5881C44.3172 81.7358 44.249 81.9375 44.249 82.1932C44.249 82.5426 44.3783 82.8068 44.6368 82.9858C44.8982 83.1619 45.2291 83.25 45.6297 83.25ZM50.9119 84V77.4545H51.8835V78.4773H51.9687C52.105 78.1278 52.3252 77.8565 52.6292 77.6634C52.9332 77.4673 53.2982 77.3693 53.7244 77.3693C54.1562 77.3693 54.5156 77.4673 54.8025 77.6634C55.0923 77.8565 55.3181 78.1278 55.48 78.4773H55.5482C55.7158 78.1392 55.9673 77.8707 56.3025 77.6719C56.6377 77.4702 57.0397 77.3693 57.5085 77.3693C58.0937 77.3693 58.5724 77.5526 58.9445 77.919C59.3167 78.2827 59.5028 78.8494 59.5028 79.6193V84H58.4971V79.6193C58.4971 79.1364 58.365 78.7912 58.1008 78.5838C57.8366 78.3764 57.5255 78.2727 57.1675 78.2727C56.7073 78.2727 56.3508 78.4119 56.0979 78.6903C55.8451 78.9659 55.7187 79.3153 55.7187 79.7386V84H54.696V79.517C54.696 79.1449 54.5752 78.8452 54.3337 78.6179C54.0923 78.3878 53.7812 78.2727 53.4005 78.2727C53.1391 78.2727 52.8948 78.3423 52.6675 78.4815C52.4431 78.6207 52.2613 78.8139 52.1221 79.0611C51.9857 79.3054 51.9175 79.5881 51.9175 79.9091V84H50.9119ZM64.6859 84.1364C64.0552 84.1364 63.5112 83.9972 63.0538 83.7188C62.5992 83.4375 62.2484 83.0455 62.0012 82.5426C61.7569 82.0369 61.6347 81.4489 61.6347 80.7784C61.6347 80.108 61.7569 79.517 62.0012 79.0057C62.2484 78.4915 62.5921 78.0909 63.0325 77.804C63.4756 77.5142 63.9927 77.3693 64.5836 77.3693C64.9245 77.3693 65.2612 77.4261 65.5935 77.5398C65.9259 77.6534 66.2285 77.8381 66.5012 78.0938C66.7739 78.3466 66.9913 78.6818 67.1532 79.0994C67.3151 79.517 67.3961 80.0312 67.3961 80.642V81.0682H62.3506V80.1989H66.3734C66.3734 79.8295 66.2995 79.5 66.1518 79.2102C66.0069 78.9205 65.7995 78.6918 65.5296 78.5241C65.2626 78.3565 64.9472 78.2727 64.5836 78.2727C64.183 78.2727 63.8364 78.3722 63.5438 78.571C63.254 78.767 63.031 79.0227 62.8748 79.3381C62.7185 79.6534 62.6404 79.9915 62.6404 80.3523V80.9318C62.6404 81.4261 62.7256 81.8452 62.8961 82.1889C63.0694 82.5298 63.3094 82.7898 63.6163 82.9688C63.9231 83.1449 64.2796 83.233 64.6859 83.233C64.9501 83.233 65.1887 83.196 65.4018 83.1222C65.6177 83.0455 65.8038 82.9318 65.96 82.7812C66.1163 82.6278 66.237 82.4375 66.3222 82.2102L67.2938 82.483C67.1915 82.8125 67.0197 83.1023 66.7782 83.3523C66.5367 83.5994 66.2384 83.7926 65.8833 83.9318C65.5282 84.0682 65.129 84.1364 64.6859 84.1364Z" fill="#A6A6A6"/>
<path d="M36.9063 98.2727H38.2188V104.46C38.2188 105.02 38.108 105.499 37.8864 105.896C37.6677 106.294 37.3594 106.598 36.9617 106.808C36.564 107.016 36.0981 107.119 35.564 107.119C35.0725 107.119 34.6308 107.03 34.2387 106.851C33.8495 106.672 33.5413 106.412 33.314 106.071C33.0896 105.727 32.9773 105.31 32.9773 104.818H34.2856C34.2856 105.06 34.341 105.268 34.4518 105.445C34.5654 105.621 34.7202 105.759 34.9163 105.858C35.1151 105.955 35.3424 106.003 35.5981 106.003C35.8765 106.003 36.1123 105.945 36.3055 105.828C36.5015 105.709 36.6506 105.534 36.7529 105.304C36.8552 105.074 36.9063 104.793 36.9063 104.46V98.2727ZM43.4541 107.132C42.8092 107.132 42.2538 106.994 41.7879 106.719C41.3249 106.44 40.9669 106.05 40.7141 105.547C40.4641 105.041 40.3391 104.449 40.3391 103.77C40.3391 103.099 40.4641 102.509 40.7141 101.997C40.9669 101.486 41.3192 101.087 41.7709 100.8C42.2254 100.513 42.7567 100.369 43.3646 100.369C43.7339 100.369 44.0919 100.43 44.4385 100.553C44.7851 100.675 45.0962 100.866 45.3717 101.128C45.6473 101.389 45.8646 101.729 46.0237 102.146C46.1828 102.561 46.2624 103.065 46.2624 103.659V104.111H41.0592V103.156H45.0138C45.0138 102.821 44.9456 102.524 44.8092 102.266C44.6729 102.004 44.4811 101.798 44.2339 101.648C43.9896 101.497 43.7027 101.422 43.3732 101.422C43.0152 101.422 42.7027 101.51 42.4357 101.686C42.1714 101.859 41.9669 102.087 41.822 102.368C41.68 102.646 41.6089 102.949 41.6089 103.276V104.021C41.6089 104.459 41.6857 104.831 41.8391 105.138C41.9953 105.445 42.2126 105.679 42.4911 105.841C42.7695 106 43.0947 106.08 43.4669 106.08C43.7084 106.08 43.9286 106.045 44.1274 105.977C44.3263 105.906 44.4982 105.801 44.643 105.662C44.7879 105.523 44.8987 105.351 44.9754 105.146L46.1814 105.364C46.0848 105.719 45.9115 106.03 45.6615 106.297C45.4143 106.561 45.1033 106.767 44.7283 106.915C44.3561 107.06 43.9314 107.132 43.4541 107.132ZM49.5502 103.114V107H48.2761V100.455H49.4991V101.52H49.58C49.7306 101.173 49.9664 100.895 50.2874 100.685C50.6113 100.474 51.019 100.369 51.5104 100.369C51.9565 100.369 52.3471 100.463 52.6823 100.651C53.0175 100.835 53.2775 101.111 53.4621 101.477C53.6468 101.844 53.7391 102.297 53.7391 102.837V107H52.465V102.99C52.465 102.516 52.3414 102.145 52.0942 101.878C51.8471 101.608 51.5076 101.473 51.0758 101.473C50.7803 101.473 50.5175 101.537 50.2874 101.665C50.0602 101.793 49.8798 101.98 49.7462 102.227C49.6156 102.472 49.5502 102.767 49.5502 103.114ZM57.3221 103.114V107H56.0479V100.455H57.271V101.52H57.3519C57.5025 101.173 57.7383 100.895 58.0593 100.685C58.3832 100.474 58.7908 100.369 59.2823 100.369C59.7283 100.369 60.119 100.463 60.4542 100.651C60.7894 100.835 61.0494 101.111 61.234 101.477C61.4187 101.844 61.511 102.297 61.511 102.837V107H60.2369V102.99C60.2369 102.516 60.1133 102.145 59.8661 101.878C59.619 101.608 59.2795 101.473 58.8477 101.473C58.5522 101.473 58.2894 101.537 58.0593 101.665C57.832 101.793 57.6516 101.98 57.5181 102.227C57.3874 102.472 57.3221 102.767 57.3221 103.114ZM64.3908 109.455C64.2005 109.455 64.0272 109.439 63.871 109.408C63.7147 109.379 63.5982 109.348 63.5215 109.314L63.8283 108.27C64.0613 108.332 64.2687 108.359 64.4505 108.351C64.6323 108.342 64.7928 108.274 64.932 108.146C65.0741 108.018 65.1991 107.81 65.307 107.52L65.4647 107.085L63.0698 100.455H64.4335L66.0911 105.534H66.1593L67.817 100.455H69.1849L66.4874 107.874C66.3624 108.214 66.2033 108.503 66.0102 108.739C65.817 108.977 65.5869 109.156 65.3198 109.276C65.0528 109.395 64.7431 109.455 64.3908 109.455ZM76.5692 107L74.1487 98.2727H75.5337L77.2339 105.031H77.3149L79.0834 98.2727H80.4555L82.224 105.036H82.305L84.001 98.2727H85.3902L82.9655 107H81.6402L79.8036 100.463H79.7354L77.8987 107H76.5692ZM87.0886 107V100.455H88.3627V107H87.0886ZM87.732 99.4446C87.5104 99.4446 87.3201 99.3707 87.161 99.223C87.0048 99.0724 86.9266 98.8935 86.9266 98.6861C86.9266 98.4759 87.0048 98.2969 87.161 98.1491C87.3201 97.9986 87.5104 97.9233 87.732 97.9233C87.9536 97.9233 88.1425 97.9986 88.2988 98.1491C88.4579 98.2969 88.5374 98.4759 88.5374 98.6861C88.5374 98.8935 88.4579 99.0724 88.2988 99.223C88.1425 99.3707 87.9536 99.4446 87.732 99.4446ZM91.951 98.2727V107H90.6768V98.2727H91.951ZM99.17 102.053L98.0151 102.257C97.9668 102.109 97.8901 101.969 97.785 101.835C97.6827 101.702 97.5435 101.592 97.3674 101.507C97.1913 101.422 96.9711 101.379 96.7069 101.379C96.3461 101.379 96.045 101.46 95.8035 101.622C95.562 101.781 95.4413 101.987 95.4413 102.24C95.4413 102.459 95.5222 102.635 95.6842 102.768C95.8461 102.902 96.1075 103.011 96.4683 103.097L97.508 103.335C98.1103 103.474 98.5592 103.689 98.8546 103.979C99.1501 104.268 99.2978 104.645 99.2978 105.108C99.2978 105.5 99.1842 105.849 98.9569 106.156C98.7325 106.46 98.4185 106.699 98.0151 106.872C97.6146 107.045 97.1501 107.132 96.6217 107.132C95.8887 107.132 95.2907 106.976 94.8276 106.663C94.3646 106.348 94.0805 105.901 93.9754 105.321L95.2069 105.134C95.2836 105.455 95.4413 105.697 95.6799 105.862C95.9185 106.024 96.2296 106.105 96.6131 106.105C97.0308 106.105 97.3646 106.018 97.6146 105.845C97.8646 105.669 97.9896 105.455 97.9896 105.202C97.9896 104.997 97.9129 104.825 97.7594 104.686C97.6089 104.547 97.3773 104.442 97.0648 104.371L95.9569 104.128C95.3461 103.989 94.8944 103.767 94.6018 103.463C94.312 103.159 94.1671 102.774 94.1671 102.308C94.1671 101.922 94.2751 101.584 94.491 101.294C94.7069 101.004 95.0052 100.778 95.3859 100.616C95.7666 100.452 96.2026 100.369 96.6941 100.369C97.4015 100.369 97.9583 100.523 98.3646 100.83C98.7708 101.134 99.0393 101.541 99.17 102.053ZM104.056 107.132C103.442 107.132 102.907 106.991 102.449 106.71C101.992 106.429 101.637 106.036 101.384 105.53C101.131 105.024 101.005 104.433 101.005 103.757C101.005 103.078 101.131 102.484 101.384 101.976C101.637 101.467 101.992 101.072 102.449 100.791C102.907 100.51 103.442 100.369 104.056 100.369C104.669 100.369 105.205 100.51 105.662 100.791C106.12 101.072 106.475 101.467 106.728 101.976C106.981 102.484 107.107 103.078 107.107 103.757C107.107 104.433 106.981 105.024 106.728 105.53C106.475 106.036 106.12 106.429 105.662 106.71C105.205 106.991 104.669 107.132 104.056 107.132ZM104.06 106.062C104.458 106.062 104.787 105.957 105.049 105.747C105.31 105.537 105.503 105.257 105.628 104.908C105.756 104.558 105.82 104.173 105.82 103.753C105.82 103.335 105.756 102.952 105.628 102.602C105.503 102.25 105.31 101.967 105.049 101.754C104.787 101.541 104.458 101.435 104.06 101.435C103.66 101.435 103.327 101.541 103.063 101.754C102.802 101.967 102.607 102.25 102.479 102.602C102.354 102.952 102.292 103.335 102.292 103.753C102.292 104.173 102.354 104.558 102.479 104.908C102.607 105.257 102.802 105.537 103.063 105.747C103.327 105.957 103.66 106.062 104.06 106.062ZM110.403 103.114V107H109.129V100.455H110.352V101.52H110.433C110.584 101.173 110.82 100.895 111.141 100.685C111.464 100.474 111.872 100.369 112.364 100.369C112.81 100.369 113.2 100.463 113.535 100.651C113.871 100.835 114.131 101.111 114.315 101.477C114.5 101.844 114.592 102.297 114.592 102.837V107H113.318V102.99C113.318 102.516 113.195 102.145 112.947 101.878C112.7 101.608 112.361 101.473 111.929 101.473C111.633 101.473 111.371 101.537 111.141 101.665C110.913 101.793 110.733 101.98 110.599 102.227C110.469 102.472 110.403 102.767 110.403 103.114Z" fill="#54565A"/>
<path d="M34.1116 135H33.0037L36.2082 126.273H37.2991L40.5037 135H39.3957L36.7878 127.653H36.7196L34.1116 135ZM34.5207 131.591H38.9866V132.528H34.5207V131.591ZM44.9688 137.591C44.483 137.591 44.0653 137.528 43.7159 137.403C43.3665 137.281 43.0753 137.119 42.8423 136.918C42.6122 136.719 42.429 136.506 42.2926 136.278L43.0938 135.716C43.1847 135.835 43.2997 135.972 43.4389 136.125C43.5781 136.281 43.7685 136.416 44.0099 136.53C44.2543 136.646 44.5739 136.705 44.9688 136.705C45.4972 136.705 45.9332 136.577 46.277 136.321C46.6207 136.065 46.7926 135.665 46.7926 135.119V133.79H46.7074C46.6335 133.909 46.5284 134.057 46.392 134.233C46.2585 134.406 46.0653 134.561 45.8125 134.697C45.5625 134.831 45.2244 134.898 44.7983 134.898C44.2699 134.898 43.7955 134.773 43.375 134.523C42.9574 134.273 42.6264 133.909 42.3821 133.432C42.1406 132.955 42.0199 132.375 42.0199 131.693C42.0199 131.023 42.1378 130.439 42.3736 129.942C42.6094 129.442 42.9375 129.055 43.358 128.783C43.7784 128.507 44.2642 128.369 44.8153 128.369C45.2415 128.369 45.5795 128.44 45.8295 128.582C46.0824 128.722 46.2756 128.881 46.4091 129.06C46.5455 129.236 46.6506 129.381 46.7244 129.494H46.8267V128.455H47.7983V135.188C47.7983 135.75 47.6705 136.207 47.4148 136.56C47.1619 136.915 46.821 137.175 46.392 137.339C45.9659 137.507 45.4915 137.591 44.9688 137.591ZM44.9347 133.994C45.3381 133.994 45.679 133.902 45.9574 133.717C46.2358 133.533 46.4474 133.267 46.5923 132.92C46.7372 132.574 46.8097 132.159 46.8097 131.676C46.8097 131.205 46.7386 130.788 46.5966 130.428C46.4545 130.067 46.2443 129.784 45.9659 129.58C45.6875 129.375 45.3438 129.273 44.9347 129.273C44.5085 129.273 44.1534 129.381 43.8693 129.597C43.5881 129.812 43.3764 130.102 43.2344 130.466C43.0952 130.83 43.0256 131.233 43.0256 131.676C43.0256 132.131 43.0966 132.533 43.2386 132.882C43.3835 133.229 43.5966 133.501 43.8778 133.7C44.1619 133.896 44.5142 133.994 44.9347 133.994ZM52.9835 135.136C52.3528 135.136 51.8088 134.997 51.3514 134.719C50.8969 134.438 50.546 134.045 50.2989 133.543C50.0545 133.037 49.9324 132.449 49.9324 131.778C49.9324 131.108 50.0545 130.517 50.2989 130.006C50.546 129.491 50.8898 129.091 51.3301 128.804C51.7733 128.514 52.2903 128.369 52.8813 128.369C53.2222 128.369 53.5588 128.426 53.8912 128.54C54.2236 128.653 54.5261 128.838 54.7989 129.094C55.0716 129.347 55.2889 129.682 55.4509 130.099C55.6128 130.517 55.6938 131.031 55.6938 131.642V132.068H50.6483V131.199H54.671C54.671 130.83 54.5972 130.5 54.4494 130.21C54.3045 129.92 54.0972 129.692 53.8273 129.524C53.5602 129.357 53.2449 129.273 52.8813 129.273C52.4807 129.273 52.1341 129.372 51.8415 129.571C51.5517 129.767 51.3287 130.023 51.1724 130.338C51.0162 130.653 50.9381 130.991 50.9381 131.352V131.932C50.9381 132.426 51.0233 132.845 51.1938 133.189C51.367 133.53 51.6071 133.79 51.9139 133.969C52.2207 134.145 52.5773 134.233 52.9835 134.233C53.2477 134.233 53.4864 134.196 53.6994 134.122C53.9153 134.045 54.1014 133.932 54.2577 133.781C54.4139 133.628 54.5347 133.437 54.6199 133.21L55.5915 133.483C55.4892 133.812 55.3173 134.102 55.0759 134.352C54.8344 134.599 54.5361 134.793 54.181 134.932C53.8259 135.068 53.4267 135.136 52.9835 135.136Z" fill="#A6A6A6"/>
<path d="M33.4926 158V157.045L36.4457 153.986C36.7611 153.653 37.021 153.362 37.2256 153.112C37.433 152.859 37.5878 152.619 37.6901 152.392C37.7923 152.165 37.8435 151.923 37.8435 151.668C37.8435 151.378 37.7753 151.128 37.6389 150.918C37.5026 150.705 37.3165 150.541 37.0807 150.428C36.8449 150.311 36.5793 150.253 36.2838 150.253C35.9713 150.253 35.6986 150.317 35.4656 150.445C35.2327 150.572 35.0537 150.753 34.9287 150.986C34.8037 151.219 34.7412 151.491 34.7412 151.804H33.4841C33.4841 151.273 33.6062 150.808 33.8506 150.411C34.0949 150.013 34.4301 149.705 34.8562 149.486C35.2824 149.264 35.7668 149.153 36.3094 149.153C36.8577 149.153 37.3406 149.263 37.7582 149.482C38.1787 149.697 38.5068 149.993 38.7426 150.368C38.9784 150.74 39.0963 151.161 39.0963 151.629C39.0963 151.953 39.0352 152.27 38.9131 152.58C38.7938 152.889 38.5849 153.234 38.2866 153.615C37.9884 153.993 37.5736 154.452 37.0423 154.991L35.308 156.807V156.871H39.2369V158H33.4926ZM44.4903 158.119C43.9051 158.119 43.3824 158.018 42.9222 157.817C42.4648 157.615 42.1026 157.335 41.8355 156.977C41.5713 156.616 41.4293 156.199 41.4094 155.724H42.7474C42.7645 155.983 42.8511 156.207 43.0074 156.398C43.1665 156.585 43.3739 156.73 43.6295 156.832C43.8852 156.935 44.1693 156.986 44.4818 156.986C44.8256 156.986 45.1295 156.926 45.3937 156.807C45.6608 156.687 45.8696 156.521 46.0202 156.308C46.1707 156.092 46.246 155.844 46.246 155.562C46.246 155.27 46.1707 155.013 46.0202 154.791C45.8724 154.567 45.6551 154.391 45.3682 154.263C45.0841 154.135 44.7403 154.071 44.3369 154.071H43.5997V152.997H44.3369C44.6608 152.997 44.9449 152.939 45.1892 152.822C45.4364 152.706 45.6295 152.544 45.7687 152.337C45.908 152.126 45.9776 151.881 45.9776 151.599C45.9776 151.33 45.9165 151.095 45.7943 150.896C45.675 150.695 45.5045 150.537 45.283 150.423C45.0642 150.31 44.8057 150.253 44.5074 150.253C44.2233 150.253 43.9577 150.305 43.7105 150.411C43.4662 150.513 43.2673 150.661 43.1139 150.854C42.9605 151.044 42.8781 151.273 42.8668 151.54H41.5926C41.6068 151.068 41.746 150.653 42.0102 150.295C42.2773 149.937 42.6295 149.658 43.067 149.456C43.5045 149.254 43.9903 149.153 44.5244 149.153C45.0841 149.153 45.567 149.263 45.9733 149.482C46.3824 149.697 46.6977 149.986 46.9193 150.347C47.1437 150.707 47.2545 151.102 47.2517 151.531C47.2545 152.02 47.1182 152.435 46.8426 152.776C46.5699 153.116 46.2062 153.345 45.7517 153.462V153.53C46.3312 153.618 46.7801 153.848 47.0983 154.22C47.4193 154.592 47.5784 155.054 47.5756 155.605C47.5784 156.085 47.4449 156.516 47.175 156.896C46.908 157.277 46.5429 157.577 46.0798 157.795C45.6168 158.011 45.0869 158.119 44.4903 158.119Z" fill="#54565A"/>
<path d="M39.5317 180C39.438 179.713 39.3144 179.456 39.161 179.229C39.0104 178.999 38.83 178.803 38.6198 178.641C38.4124 178.479 38.1766 178.355 37.9124 178.27C37.6482 178.185 37.3584 178.142 37.0431 178.142C36.526 178.142 36.0559 178.276 35.6326 178.543C35.2093 178.81 34.8726 179.203 34.6226 179.723C34.3726 180.243 34.2476 180.881 34.2476 181.636C34.2476 182.392 34.374 183.03 34.6269 183.55C34.8797 184.07 35.2221 184.463 35.6539 184.73C36.0857 184.997 36.5715 185.131 37.1113 185.131C37.6113 185.131 38.0516 185.024 38.4323 184.811C38.8158 184.595 39.1141 184.291 39.3272 183.899C39.5431 183.504 39.651 183.04 39.651 182.506L39.9749 182.574H37.3499V181.636H40.6738V182.574C40.6738 183.293 40.5203 183.918 40.2135 184.449C39.9096 184.98 39.4891 185.392 38.9522 185.685C38.4181 185.974 37.8044 186.119 37.1113 186.119C36.3385 186.119 35.6596 185.938 35.0743 185.574C34.4919 185.21 34.0374 184.693 33.7107 184.023C33.3868 183.352 33.2249 182.557 33.2249 181.636C33.2249 180.946 33.3172 180.325 33.5019 179.774C33.6894 179.22 33.9536 178.749 34.2945 178.359C34.6354 177.97 35.0388 177.672 35.5047 177.464C35.9706 177.257 36.4834 177.153 37.0431 177.153C37.5033 177.153 37.9323 177.223 38.33 177.362C38.7306 177.499 39.0871 177.693 39.3996 177.946C39.7149 178.196 39.9777 178.496 40.188 178.845C40.3982 179.192 40.5431 179.577 40.6226 180H39.5317ZM42.9474 186V179.455H43.919V180.443H43.9872C44.1065 180.119 44.3224 179.857 44.6349 179.655C44.9474 179.453 45.2997 179.352 45.6917 179.352C45.7656 179.352 45.8579 179.354 45.9687 179.357C46.0795 179.359 46.1633 179.364 46.2201 179.369V180.392C46.186 180.384 46.1079 180.371 45.9858 180.354C45.8664 180.334 45.74 180.324 45.6065 180.324C45.2883 180.324 45.0042 180.391 44.7542 180.524C44.5071 180.655 44.311 180.837 44.1662 181.07C44.0241 181.3 43.9531 181.562 43.9531 181.858V186H42.9474ZM49.9384 186.153C49.5236 186.153 49.1472 186.075 48.8091 185.919C48.4711 185.76 48.2026 185.531 48.0037 185.233C47.8049 184.932 47.7054 184.568 47.7054 184.142C47.7054 183.767 47.7793 183.463 47.927 183.23C48.0748 182.994 48.2722 182.81 48.5194 182.676C48.7665 182.543 49.0392 182.443 49.3375 182.378C49.6387 182.31 49.9412 182.256 50.2452 182.216C50.6429 182.165 50.9654 182.126 51.2125 182.101C51.4625 182.072 51.6444 182.026 51.758 181.96C51.8745 181.895 51.9327 181.781 51.9327 181.619V181.585C51.9327 181.165 51.8176 180.838 51.5875 180.605C51.3603 180.372 51.0151 180.256 50.552 180.256C50.0719 180.256 49.6955 180.361 49.4228 180.571C49.15 180.781 48.9583 181.006 48.8475 181.244L47.8929 180.903C48.0634 180.506 48.2907 180.196 48.5748 179.974C48.8617 179.75 49.1742 179.594 49.5123 179.506C49.8532 179.415 50.1884 179.369 50.5179 179.369C50.7282 179.369 50.9696 179.395 51.2424 179.446C51.5179 179.494 51.7836 179.595 52.0392 179.749C52.2978 179.902 52.5123 180.134 52.6827 180.443C52.8532 180.753 52.9384 181.168 52.9384 181.688V186H51.9327V185.114H51.8816C51.8134 185.256 51.6998 185.408 51.5407 185.57C51.3816 185.732 51.1699 185.869 50.9057 185.983C50.6415 186.097 50.3191 186.153 49.9384 186.153ZM50.0918 185.25C50.4895 185.25 50.8248 185.172 51.0975 185.016C51.373 184.859 51.5804 184.658 51.7196 184.411C51.8617 184.163 51.9327 183.903 51.9327 183.631V182.71C51.8901 182.761 51.7963 182.808 51.6515 182.851C51.5094 182.891 51.3446 182.926 51.1571 182.957C50.9725 182.986 50.7921 183.011 50.6159 183.034C50.4426 183.054 50.302 183.071 50.1941 183.085C49.9327 183.119 49.6884 183.175 49.4611 183.251C49.2367 183.325 49.0549 183.437 48.9157 183.588C48.7793 183.736 48.7111 183.937 48.7111 184.193C48.7111 184.543 48.8404 184.807 49.0989 184.986C49.3603 185.162 49.6912 185.25 50.0918 185.25ZM57.8456 186.136C57.3001 186.136 56.8186 185.999 56.401 185.723C55.9833 185.445 55.6566 185.053 55.4208 184.547C55.185 184.038 55.0672 183.438 55.0672 182.744C55.0672 182.057 55.185 181.46 55.4208 180.955C55.6566 180.449 55.9848 180.058 56.4052 179.783C56.8257 179.507 57.3115 179.369 57.8626 179.369C58.2887 179.369 58.6254 179.44 58.8725 179.582C59.1225 179.722 59.3129 179.881 59.4436 180.06C59.5771 180.236 59.6808 180.381 59.7547 180.494H59.8399V177.273H60.8456V186H59.874V184.994H59.7547C59.6808 185.114 59.5757 185.264 59.4393 185.446C59.3029 185.625 59.1083 185.786 58.8555 185.928C58.6027 186.067 58.266 186.136 57.8456 186.136ZM57.9819 185.233C58.3853 185.233 58.7262 185.128 59.0047 184.918C59.2831 184.705 59.4947 184.411 59.6396 184.036C59.7845 183.658 59.8569 183.222 59.8569 182.727C59.8569 182.239 59.7859 181.811 59.6439 181.445C59.5018 181.075 59.2916 180.788 59.0132 180.584C58.7348 180.376 58.391 180.273 57.9819 180.273C57.5558 180.273 57.2007 180.382 56.9166 180.601C56.6353 180.817 56.4237 181.111 56.2816 181.483C56.1424 181.852 56.0728 182.267 56.0728 182.727C56.0728 183.193 56.1439 183.616 56.2859 183.997C56.4308 184.375 56.6439 184.676 56.9251 184.901C57.2092 185.122 57.5615 185.233 57.9819 185.233ZM66.1714 186.136C65.5407 186.136 64.9967 185.997 64.5393 185.719C64.0848 185.438 63.7339 185.045 63.4868 184.543C63.2424 184.037 63.1203 183.449 63.1203 182.778C63.1203 182.108 63.2424 181.517 63.4868 181.006C63.7339 180.491 64.0777 180.091 64.518 179.804C64.9612 179.514 65.4782 179.369 66.0691 179.369C66.41 179.369 66.7467 179.426 67.0791 179.54C67.4115 179.653 67.714 179.838 67.9868 180.094C68.2595 180.347 68.4768 180.682 68.6387 181.099C68.8007 181.517 68.8816 182.031 68.8816 182.642V183.068H63.8362V182.199H67.8589C67.8589 181.83 67.785 181.5 67.6373 181.21C67.4924 180.92 67.285 180.692 67.0152 180.524C66.7481 180.357 66.4328 180.273 66.0691 180.273C65.6686 180.273 65.322 180.372 65.0294 180.571C64.7396 180.767 64.5166 181.023 64.3603 181.338C64.2041 181.653 64.126 181.991 64.126 182.352V182.932C64.126 183.426 64.2112 183.845 64.3816 184.189C64.5549 184.53 64.795 184.79 65.1018 184.969C65.4086 185.145 65.7652 185.233 66.1714 185.233C66.4356 185.233 66.6743 185.196 66.8873 185.122C67.1032 185.045 67.2893 184.932 67.4456 184.781C67.6018 184.628 67.7225 184.437 67.8078 184.21L68.7794 184.483C68.6771 184.812 68.5052 185.102 68.2637 185.352C68.0223 185.599 67.724 185.793 67.3689 185.932C67.0137 186.068 66.6146 186.136 66.1714 186.136Z" fill="#A6A6A6"/>
<path d="M33.498 207.381V206.124L37.2011 200.273H38.2494V202.062H37.6102L35.1173 206.013V206.081H40.2863V207.381H33.498ZM37.6613 209V206.997L37.6784 206.435V200.273H39.1699V209H37.6613ZM42.9691 209.094C42.7105 209.094 42.489 209.003 42.3043 208.821C42.1196 208.639 42.0287 208.418 42.0316 208.156C42.0287 207.901 42.1196 207.682 42.3043 207.5C42.489 207.318 42.7105 207.227 42.9691 207.227C43.2191 207.227 43.4364 207.318 43.6211 207.5C43.8086 207.682 43.9037 207.901 43.9066 208.156C43.9037 208.33 43.8583 208.487 43.7702 208.629C43.685 208.771 43.5713 208.885 43.4293 208.97C43.2901 209.053 43.1367 209.094 42.9691 209.094ZM49.0108 209.119C48.4426 209.119 47.9341 209.013 47.4853 208.8C47.0364 208.584 46.6799 208.288 46.4157 207.913C46.1543 207.538 46.0151 207.109 45.998 206.626H47.5321C47.5605 206.984 47.7154 207.277 47.9966 207.504C48.2779 207.729 48.6159 207.841 49.0108 207.841C49.3205 207.841 49.5961 207.77 49.8375 207.628C50.079 207.486 50.2694 207.288 50.4086 207.036C50.5478 206.783 50.6159 206.494 50.6131 206.17C50.6159 205.841 50.5463 205.548 50.4043 205.293C50.2623 205.037 50.0676 204.837 49.8205 204.692C49.5733 204.544 49.2892 204.47 48.9682 204.47C48.7069 204.467 48.4498 204.516 48.1969 204.615C47.9441 204.714 47.7438 204.845 47.5961 205.007L46.1685 204.773L46.6245 200.273H51.687V201.594H47.9327L47.6813 203.908H47.7324C47.8944 203.717 48.123 203.56 48.4185 203.435C48.714 203.307 49.0378 203.243 49.3901 203.243C49.9185 203.243 50.3901 203.368 50.8049 203.618C51.2196 203.865 51.5463 204.206 51.785 204.641C52.0236 205.075 52.1429 205.572 52.1429 206.132C52.1429 206.709 52.0094 207.223 51.7424 207.675C51.4782 208.124 51.1103 208.477 50.6387 208.736C50.1699 208.991 49.6273 209.119 49.0108 209.119ZM57.8323 209V200.273H63.4232V201.598H59.4132V203.967H63.0397V205.293H59.4132V209H57.8323ZM65.3953 209V202.455H66.938V209H65.3953ZM66.1709 201.526C65.9266 201.526 65.7164 201.445 65.5402 201.283C65.3641 201.118 65.276 200.92 65.276 200.69C65.276 200.457 65.3641 200.26 65.5402 200.098C65.7164 199.933 65.9266 199.851 66.1709 199.851C66.4181 199.851 66.6283 199.933 66.8016 200.098C66.9777 200.26 67.0658 200.457 67.0658 200.69C67.0658 200.92 66.9777 201.118 66.8016 201.283C66.6283 201.445 66.4181 201.526 66.1709 201.526ZM69.1243 209V202.455H70.62V203.545H70.6882C70.8075 203.168 71.012 202.876 71.3018 202.672C71.5944 202.464 71.9282 202.361 72.3032 202.361C72.3885 202.361 72.4836 202.365 72.5887 202.374C72.6967 202.379 72.7862 202.389 72.8572 202.403V203.822C72.7919 203.8 72.6882 203.78 72.5461 203.763C72.4069 203.743 72.272 203.733 72.1413 203.733C71.86 203.733 71.6072 203.794 71.3828 203.916C71.1612 204.036 70.9865 204.202 70.8586 204.415C70.7308 204.628 70.6669 204.874 70.6669 205.152V209H69.1243ZM79.6554 204.185L78.2491 204.338C78.2093 204.196 78.1397 204.062 78.0403 203.938C77.9437 203.812 77.813 203.712 77.6483 203.635C77.4835 203.558 77.2818 203.52 77.0431 203.52C76.7221 203.52 76.4522 203.589 76.2335 203.729C76.0176 203.868 75.911 204.048 75.9139 204.27C75.911 204.46 75.9806 204.615 76.1227 204.734C76.2676 204.854 76.5062 204.952 76.8386 205.028L77.9551 205.267C78.5744 205.401 79.0346 205.612 79.3358 205.902C79.6397 206.192 79.7931 206.571 79.796 207.04C79.7931 207.452 79.6724 207.815 79.4338 208.131C79.198 208.443 78.8699 208.687 78.4494 208.864C78.0289 209.04 77.546 209.128 77.0005 209.128C76.1994 209.128 75.5545 208.96 75.0659 208.625C74.5772 208.287 74.286 207.817 74.1923 207.214L75.6966 207.07C75.7647 207.365 75.9096 207.588 76.1312 207.739C76.3528 207.889 76.6412 207.964 76.9963 207.964C77.3627 207.964 77.6568 207.889 77.8784 207.739C78.1028 207.588 78.215 207.402 78.215 207.18C78.215 206.993 78.1426 206.838 77.9977 206.716C77.8556 206.594 77.6341 206.5 77.3329 206.435L76.2164 206.2C75.5886 206.07 75.1241 205.849 74.823 205.54C74.5218 205.227 74.3727 204.832 74.3755 204.355C74.3727 203.952 74.4821 203.602 74.7037 203.307C74.9281 203.009 75.2392 202.778 75.6369 202.616C76.0375 202.452 76.4991 202.369 77.0218 202.369C77.7889 202.369 78.3926 202.533 78.8329 202.859C79.2761 203.186 79.5502 203.628 79.6554 204.185ZM84.9365 202.455V203.648H81.1737V202.455H84.9365ZM82.1027 200.886H83.6453V207.031C83.6453 207.239 83.6765 207.398 83.739 207.509C83.8044 207.616 83.8896 207.69 83.9947 207.73C84.0998 207.77 84.2163 207.79 84.3441 207.79C84.4407 207.79 84.5288 207.783 84.6083 207.768C84.6907 207.754 84.7532 207.741 84.7958 207.73L85.0558 208.936C84.9734 208.964 84.8555 208.996 84.7021 209.03C84.5515 209.064 84.3669 209.084 84.1481 209.089C83.7618 209.101 83.4137 209.043 83.1041 208.915C82.7944 208.784 82.5487 208.582 82.3669 208.31C82.1879 208.037 82.0998 207.696 82.1027 207.287V200.886ZM97.9415 203.217H96.3478C96.3023 202.956 96.2185 202.724 96.0963 202.523C95.9742 202.318 95.8222 202.145 95.6404 202.003C95.4586 201.861 95.2512 201.754 95.0182 201.683C94.7881 201.609 94.5395 201.572 94.2725 201.572C93.798 201.572 93.3776 201.692 93.0111 201.93C92.6446 202.166 92.3577 202.513 92.1503 202.97C91.9429 203.425 91.8392 203.98 91.8392 204.636C91.8392 205.304 91.9429 205.866 92.1503 206.324C92.3605 206.778 92.6475 207.122 93.0111 207.355C93.3776 207.585 93.7966 207.7 94.2682 207.7C94.5296 207.7 94.7739 207.666 95.0012 207.598C95.2313 207.527 95.4373 207.423 95.6191 207.287C95.8037 207.151 95.9586 206.983 96.0836 206.784C96.2114 206.585 96.2995 206.358 96.3478 206.102L97.9415 206.111C97.8819 206.526 97.7526 206.915 97.5537 207.278C97.3577 207.642 97.1006 207.963 96.7824 208.241C96.4642 208.517 96.0921 208.733 95.6659 208.889C95.2398 209.043 94.7668 209.119 94.2469 209.119C93.4799 209.119 92.7952 208.942 92.1929 208.587C91.5907 208.232 91.1162 207.719 90.7696 207.048C90.423 206.378 90.2498 205.574 90.2498 204.636C90.2498 203.696 90.4245 202.892 90.7739 202.224C91.1233 201.554 91.5992 201.041 92.2015 200.686C92.8037 200.331 93.4855 200.153 94.2469 200.153C94.7327 200.153 95.1844 200.222 95.602 200.358C96.0196 200.494 96.3918 200.695 96.7185 200.959C97.0452 201.22 97.3137 201.541 97.5239 201.922C97.737 202.3 97.8762 202.732 97.9415 203.217ZM101.464 200.273V209H99.9211V200.273H101.464ZM105.534 209.132C105.119 209.132 104.745 209.058 104.413 208.911C104.083 208.76 103.822 208.538 103.629 208.246C103.438 207.953 103.343 207.592 103.343 207.163C103.343 206.794 103.411 206.489 103.548 206.247C103.684 206.006 103.87 205.812 104.106 205.668C104.342 205.523 104.607 205.413 104.903 205.339C105.201 205.263 105.509 205.207 105.828 205.173C106.211 205.134 106.522 205.098 106.761 205.067C106.999 205.033 107.173 204.982 107.281 204.913C107.392 204.842 107.447 204.733 107.447 204.585V204.56C107.447 204.239 107.352 203.99 107.161 203.814C106.971 203.638 106.697 203.55 106.339 203.55C105.961 203.55 105.661 203.632 105.44 203.797C105.221 203.962 105.073 204.156 104.997 204.381L103.556 204.176C103.67 203.778 103.857 203.446 104.119 203.179C104.38 202.909 104.7 202.707 105.078 202.574C105.455 202.438 105.873 202.369 106.33 202.369C106.646 202.369 106.96 202.406 107.272 202.48C107.585 202.554 107.87 202.676 108.129 202.847C108.387 203.014 108.595 203.243 108.751 203.533C108.91 203.822 108.99 204.185 108.99 204.619V209H107.507V208.101H107.455C107.362 208.283 107.23 208.453 107.059 208.612C106.892 208.768 106.68 208.895 106.424 208.991C106.171 209.085 105.874 209.132 105.534 209.132ZM105.934 207.999C106.244 207.999 106.512 207.937 106.74 207.815C106.967 207.69 107.142 207.526 107.264 207.321C107.389 207.116 107.451 206.893 107.451 206.652V205.881C107.403 205.92 107.32 205.957 107.204 205.991C107.09 206.026 106.963 206.055 106.82 206.081C106.678 206.107 106.538 206.129 106.399 206.149C106.259 206.169 106.139 206.186 106.036 206.2C105.806 206.232 105.6 206.283 105.419 206.354C105.237 206.425 105.093 206.524 104.988 206.652C104.883 206.777 104.83 206.939 104.83 207.138C104.83 207.422 104.934 207.636 105.142 207.781C105.349 207.926 105.613 207.999 105.934 207.999ZM116.314 204.185L114.908 204.338C114.868 204.196 114.798 204.062 114.699 203.938C114.602 203.812 114.472 203.712 114.307 203.635C114.142 203.558 113.94 203.52 113.702 203.52C113.381 203.52 113.111 203.589 112.892 203.729C112.676 203.868 112.57 204.048 112.572 204.27C112.57 204.46 112.639 204.615 112.781 204.734C112.926 204.854 113.165 204.952 113.497 205.028L114.614 205.267C115.233 205.401 115.693 205.612 115.994 205.902C116.298 206.192 116.452 206.571 116.455 207.04C116.452 207.452 116.331 207.815 116.092 208.131C115.857 208.443 115.528 208.687 115.108 208.864C114.688 209.04 114.205 209.128 113.659 209.128C112.858 209.128 112.213 208.96 111.724 208.625C111.236 208.287 110.945 207.817 110.851 207.214L112.355 207.07C112.423 207.365 112.568 207.588 112.79 207.739C113.011 207.889 113.3 207.964 113.655 207.964C114.021 207.964 114.315 207.889 114.537 207.739C114.761 207.588 114.874 207.402 114.874 207.18C114.874 206.993 114.801 206.838 114.656 206.716C114.514 206.594 114.293 206.5 113.992 206.435L112.875 206.2C112.247 206.07 111.783 205.849 111.482 205.54C111.18 205.227 111.031 204.832 111.034 204.355C111.031 203.952 111.141 203.602 111.362 203.307C111.587 203.009 111.898 202.778 112.295 202.616C112.696 202.452 113.158 202.369 113.68 202.369C114.447 202.369 115.051 202.533 115.492 202.859C115.935 203.186 116.209 203.628 116.314 204.185ZM123.5 204.185L122.094 204.338C122.054 204.196 121.984 204.062 121.885 203.938C121.788 203.812 121.658 203.712 121.493 203.635C121.328 203.558 121.126 203.52 120.888 203.52C120.567 203.52 120.297 203.589 120.078 203.729C119.862 203.868 119.756 204.048 119.758 204.27C119.756 204.46 119.825 204.615 119.967 204.734C120.112 204.854 120.351 204.952 120.683 205.028L121.8 205.267C122.419 205.401 122.879 205.612 123.18 205.902C123.484 206.192 123.638 206.571 123.641 207.04C123.638 207.452 123.517 207.815 123.278 208.131C123.043 208.443 122.714 208.687 122.294 208.864C121.873 209.04 121.391 209.128 120.845 209.128C120.044 209.128 119.399 208.96 118.91 208.625C118.422 208.287 118.131 207.817 118.037 207.214L119.541 207.07C119.609 207.365 119.754 207.588 119.976 207.739C120.197 207.889 120.486 207.964 120.841 207.964C121.207 207.964 121.501 207.889 121.723 207.739C121.947 207.588 122.06 207.402 122.06 207.18C122.06 206.993 121.987 206.838 121.842 206.716C121.7 206.594 121.479 206.5 121.177 206.435L120.061 206.2C119.433 206.07 118.969 205.849 118.668 205.54C118.366 205.227 118.217 204.832 118.22 204.355C118.217 203.952 118.327 203.602 118.548 203.307C118.773 203.009 119.084 202.778 119.481 202.616C119.882 202.452 120.344 202.369 120.866 202.369C121.633 202.369 122.237 202.533 122.677 202.859C123.121 203.186 123.395 203.628 123.5 204.185Z" fill="#54565A"/>
</g>
<defs>
<filter id="filter0_d_760_19819" x="0" y="0" width="284" height="234" filterUnits="userSpaceOnUse" color-interpolation-filters="sRGB">
<feFlood flood-opacity="0" result="BackgroundImageFix"/>
<feColorMatrix in="SourceAlpha" type="matrix" values="0 0 0 0 0 0 0 0 0 0 0 0 0 0 0 0 0 0 127 0" result="hardAlpha"/>
<feOffset dx="4" dy="4"/>
<feGaussianBlur stdDeviation="2"/>
<feComposite in2="hardAlpha" operator="out"/>
<feColorMatrix type="matrix" values="0 0 0 0 0 0 0 0 0 0 0 0 0 0 0 0 0 0 0.02 0"/>
<feBlend mode="normal" in2="BackgroundImageFix" result="effect1_dropShadow_760_19819"/>
<feBlend mode="normal" in="SourceGraphic" in2="effect1_dropShadow_760_19819" result="shape"/>
</filter>
</defs>
</svg>
